<?xml version="1.0" encoding="UTF-8" standalone="no"?>
<!-- Created with Inkscape (http://www.inkscape.org/) -->

<svg
   width="259.25287mm"
   height="141.71782mm"
   viewBox="0 0 259.25287 141.71782"
   version="1.1"
   id="svg1"
   xml:space="preserve"
   inkscape:export-filename="onpoly.svg"
   inkscape:export-xdpi="96"
   inkscape:export-ydpi="96"
   xmlns:inkscape="http://www.inkscape.org/namespaces/inkscape"
   xmlns:sodipodi="http://sodipodi.sourceforge.net/DTD/sodipodi-0.dtd"
   xmlns="http://www.w3.org/2000/svg"
   xmlns:svg="http://www.w3.org/2000/svg"><sodipodi:namedview
     id="namedview1"
     pagecolor="#505050"
     bordercolor="#eeeeee"
     borderopacity="1"
     inkscape:showpageshadow="0"
     inkscape:pageopacity="0"
     inkscape:pagecheckerboard="0"
     inkscape:deskcolor="#505050"
     inkscape:document-units="mm" /><defs
     id="defs1" /><g
     inkscape:label="Capa 1"
     inkscape:groupmode="layer"
     id="layer1"
     transform="translate(417.50478,-397.01897)"><path
       style="fill:#000000"
       d="m -230.09963,538.58566 c -0.58209,-0.12559 -1.74423,-0.23521 -2.58254,-0.2436 -2.39345,-0.0239 -6.47132,-0.77149 -8.23959,-1.51047 -2.99906,-1.25333 -7.66511,-5.16458 -9.85733,-8.26278 -0.0392,-0.0554 -0.87923,0.10596 -1.86674,0.35854 -1.60008,0.40928 -3.72455,0.46767 -19.52255,0.53662 -17.72709,0.0774 -17.72709,0.0774 -19.84375,1.06164 -2.99637,1.39333 -7.15582,2.66548 -12.03854,3.68195 -1.09141,0.22721 -2.81777,0.59214 -3.83636,0.81097 -2.51349,0.53998 -10.01752,0.53901 -12.7774,-0.002 -4.68589,-0.91796 -5.77551,-1.40236 -8.20399,-3.64722 -1.22708,-1.1343 -2.35912,-2.01967 -2.51564,-1.96749 -0.15653,0.0522 -0.47016,0.46294 -0.69696,0.91281 -0.23286,0.4619 -1.01702,1.18083 -1.80142,1.65159 -0.76399,0.45851 -1.38907,0.94603 -1.38907,1.0834 0,0.13736 -0.64781,0.24975 -1.43959,0.24975 -0.79178,0 -1.50551,0.10665 -1.58607,0.237 -0.0806,0.13036 -1.86773,0.32306 -3.97148,0.42822 -6.9687,0.34837 -12.24287,-0.72055 -17.9484,-3.63759 -4.001,-2.04557 -5.37735,-3.38121 -7.32723,-7.11049 -1.23951,-2.37065 -1.36652,-2.48992 -2.90152,-2.72457 -1.76668,-0.27007 -3.79535,-0.97606 -4.30235,-1.49724 -0.40977,-0.42123 -5.70944,-2.62866 -6.31097,-2.62866 -0.13978,0 -1.62746,-0.82702 -3.30596,-1.83783 -1.6785,-1.0108 -3.26583,-1.90574 -3.52739,-1.98876 -0.26156,-0.083 -0.63381,-0.44662 -0.82722,-0.80801 -0.39823,-0.7441 -0.66844,-0.82997 -0.87966,-0.27953 -0.0797,0.20764 -0.65797,0.6104 -1.28508,0.89501 -0.62711,0.28461 -1.54674,0.85886 -2.04362,1.27611 -4.8556,4.07743 -6.1531,5.05953 -7.33898,5.55503 -0.98291,0.41068 -1.00818,0.40617 -1.60364,-0.2861 -0.33275,-0.38684 -0.605,-0.92288 -0.605,-1.1912 0,-0.71626 1.8384,-3.04101 3.47207,-4.3906 5.47869,-4.52601 5.78578,-4.93455 4.7239,-6.28451 -0.48487,-0.61641 -1.81892,-3.3306 -2.20397,-4.48409 -0.24112,-0.72233 -1.13988,-0.55765 -3.73084,0.68362 -3.49165,1.67276 -9.47942,3.5212 -10.37387,3.20244 -1.38007,-0.49182 -1.50611,-2.07661 -0.23158,-2.91171 0.80739,-0.52903 7.67754,-3.33164 10.02989,-4.09161 1.74788,-0.56468 2.50573,-1.24995 2.11814,-1.91529 -0.10421,-0.1789 -0.6298,-0.86105 -1.16796,-1.51589 -0.53816,-0.65484 -1.29668,-1.8213 -1.6856,-2.59212 -0.84056,-1.66599 -1.05733,-1.77557 -2.78106,-1.4059 -2.12525,0.45579 -9.54085,0.92746 -11.21433,0.71329 -1.71899,-0.21999 -2.21832,-0.83931 -1.88827,-2.34202 0.22204,-1.01094 1.19861,-1.40085 4.08556,-1.63124 1.23693,-0.0987 3.49911,-0.36432 5.02708,-0.59025 1.52797,-0.22592 3.22342,-0.4142 3.76767,-0.41839 1.13346,-0.009 1.09243,0.65409 0.30719,-4.96254 -0.44381,-3.17445 -0.34019,-10.49377 0.18168,-12.83229 0.1299,-0.58208 0.52106,-2.36802 0.86924,-3.96875 0.82754,-3.80445 1.72543,-6.7647 2.227,-7.34218 0.3603,-0.41484 0.3585,-0.51126 -0.0173,-0.92653 -0.63675,-0.7036 -0.9679,-1.76179 -1.55061,-4.95497 -0.29266,-1.60375 -0.63137,-3.15403 -0.7527,-3.44507 -0.12132,-0.29104 -0.35772,-1.12448 -0.52532,-1.85208 -0.16761,-0.7276 -0.43135,-1.79917 -0.58609,-2.38125 -0.2984,-1.1225 -0.8702,-4.92443 -1.28118,-8.51873 -0.26935,-2.35568 0.18876,-7.11561 0.79976,-8.30965 0.65894,-1.28775 1.96303,-3.03419 2.74554,-3.67683 0.88918,-0.73025 4.23076,-1.26621 8.10263,-1.29959 3.1008,-0.0267 12.21509,1.0652 12.81165,1.53489 0.15688,0.12352 0.94007,0.37482 1.74044,0.55845 0.80036,0.18364 1.57427,0.42005 1.71979,0.52537 0.30527,0.22094 5.2992,1.85588 5.66878,1.85588 0.1356,0 0.40388,-0.15507 0.59617,-0.3446 0.1923,-0.18952 0.87984,-0.55543 1.52786,-0.81311 0.64803,-0.25769 1.4374,-0.74816 1.75415,-1.08994 0.33186,-0.35808 1.37711,-0.86003 2.46656,-1.18448 1.03985,-0.30968 3.16752,-1.21065 4.72814,-2.00216 1.56063,-0.7915 2.94508,-1.4404 3.07656,-1.44199 0.13148,-0.002 0.88848,-0.31011 1.68223,-0.68562 0.79374,-0.3755 1.87679,-0.74668 2.40678,-0.82485 0.52998,-0.0782 1.83443,-0.41963 2.89878,-0.75881 1.06435,-0.33917 2.46334,-0.69588 3.10886,-0.79268 0.64552,-0.0968 1.17367,-0.27079 1.17367,-0.38664 0,-0.11585 0.8632,-0.34737 1.91823,-0.51448 1.05503,-0.16711 2.15635,-0.40547 2.44739,-0.52969 1.23839,-0.52856 4.11694,-0.82888 10.58334,-1.10416 7.60988,-0.32396 7.41205,-0.27215 8.39519,-2.19851 0.71858,-1.40796 8.61726,-9.83607 9.86106,-10.52201 0.29104,-0.16051 1.71028,-1.18524 3.15387,-2.27718 1.53332,-1.15983 3.01854,-2.06851 3.57187,-2.18534 0.52095,-0.10999 1.48243,-0.39745 2.13663,-0.63878 1.38801,-0.51205 3.6286,-0.55682 5.41057,-0.10812 2.23942,0.5639 5.62017,4.1935 8.06793,8.66178 2.13929,3.9052 2.61977,4.91298 3.0492,6.39554 0.23183,0.80036 0.94315,2.52677 1.58071,3.83646 1.70957,3.5118 2.26568,4.76237 2.26568,5.095 0,0.16375 0.10116,0.36025 0.2248,0.43666 0.21424,0.13241 3.85037,-1.26929 4.4054,-1.69824 0.14553,-0.11247 1.18588,-0.46126 2.3119,-0.77511 1.12603,-0.31384 2.85243,-0.87122 3.83646,-1.23863 5.04885,-1.88506 7.13672,-2.47288 10.25233,-2.8864 0.72568,-0.0963 1.63288,-0.33722 2.01599,-0.53533 0.68561,-0.35454 2.82047,-0.90379 7.51249,-1.93277 4.41057,-0.96726 5.27743,-1.08536 9.92188,-1.35181 2.54661,-0.1461 5.4398,-0.33944 6.4293,-0.42966 3.14332,-0.28657 17.04346,0.6899 19.83718,1.39354 0.84036,0.21167 2.09052,0.48159 2.77812,0.59983 0.6876,0.11825 3.09566,0.75116 5.35123,1.40647 2.25557,0.6553 4.51776,1.28116 5.02708,1.3908 0.50933,0.10963 1.341,0.42157 1.84817,0.69321 0.50717,0.27164 1.11931,0.4939 1.36031,0.4939 0.39558,0 4.61456,1.93162 5.91965,2.71025 0.29104,0.17364 1.24354,0.68986 2.11666,1.14716 3.68976,1.93251 5.36767,2.90868 6.61459,3.8482 0.7276,0.54823 2.07827,1.56883 3.00148,2.26798 2.33121,1.76545 8.85876,7.92449 10.67584,10.07314 1.34403,1.58928 3.24569,4.58071 4.07588,6.4116 0.16496,0.3638 0.89136,1.63075 1.61422,2.81544 0.72286,1.1847 1.46776,2.55392 1.65533,3.04271 0.18758,0.4888 0.96905,2.19841 1.7366,3.79914 1.71378,3.57407 2.33484,5.53063 3.19146,10.05417 0.22046,1.16416 0.50058,2.59291 0.6225,3.175 1.44126,6.8812 1.62489,8.4735 1.61798,14.02952 -0.007,5.4626 -0.4562,9.14121 -1.38912,11.37047 -0.70616,1.68742 -1.26271,3.75831 -1.26674,4.71346 -0.002,0.40958 -0.23513,1.30255 -0.51866,1.98437 -0.28354,0.68182 -1.11033,2.74749 -1.83731,4.59038 -2.3166,5.87252 -4.42714,9.32996 -8.21057,13.45034 -1.13578,1.23692 -2.44992,2.69458 -2.9203,3.23923 -0.7712,0.89295 -6.57265,5.54895 -8.21213,6.59071 -0.36381,0.23117 -0.95912,0.71628 -1.32292,1.07802 -0.78617,0.78173 -4.30442,2.71381 -5.40782,2.96976 -0.42769,0.0992 -1.10769,0.41541 -1.51112,0.70268 -0.40343,0.28727 -1.38117,0.74513 -2.17276,1.01748 -0.79158,0.27234 -1.71892,0.67087 -2.06075,0.88561 -0.34183,0.21475 -1.09776,0.47229 -1.67984,0.57232 -1.55491,0.26721 -7.60628,2.27717 -8.07988,2.68372 -0.77588,0.66603 -4.55972,1.45121 -10.70554,2.22147 -3.0287,0.3796 -13.1567,0.55934 -14.55208,0.25826 z m 11.24479,-5.15668 c 5.6916,-0.66797 9.11038,-1.40537 14.13998,-3.04986 1.31806,-0.43095 2.64983,-0.78356 2.95948,-0.78356 0.50395,0 1.61506,-0.37267 3.14116,-1.05356 0.29105,-0.12985 0.80729,-0.31438 1.14721,-0.41006 0.62988,-0.1773 2.40256,-1.00415 4.54134,-2.11826 0.65484,-0.34112 1.37049,-0.62725 1.59032,-0.63583 0.44217,-0.0173 4.04497,-2.35003 4.18877,-2.71215 0.0498,-0.12542 0.52605,-0.45207 1.05833,-0.7259 0.53228,-0.27382 1.31818,-0.86668 1.74645,-1.31746 0.5049,-0.53146 0.94108,-0.76806 1.24065,-0.67298 0.29277,0.0929 0.56359,-0.0432 0.73934,-0.37158 0.15253,-0.28501 1.10628,-1.12114 2.11944,-1.85805 1.01316,-0.73691 2.32771,-1.99716 2.92122,-2.80057 0.59351,-0.8034 1.37335,-1.65353 1.73297,-1.88916 0.35962,-0.23563 1.20912,-1.26365 1.88777,-2.28449 0.67865,-1.02083 1.63122,-2.25337 2.11682,-2.73898 0.4856,-0.4856 0.88292,-0.94343 0.88292,-1.0174 0,-0.32677 1.64774,-3.69024 2.12236,-4.33229 0.28877,-0.39063 1.10666,-2.14292 1.81754,-3.89397 1.2362,-3.04505 1.62191,-4.61188 2.14727,-8.72252 0.13018,-1.01864 0.36164,-2.49341 0.51435,-3.27725 0.34818,-1.78726 0.36398,-11.36714 0.0226,-13.7374 -0.14025,-0.97392 -0.38422,-2.72326 -0.54215,-3.88743 -0.61686,-4.54701 -2.84102,-11.90444 -4.4414,-14.69197 -0.29002,-0.50515 -0.79437,-1.78165 -1.1208,-2.83667 -0.32642,-1.05503 -0.69853,-1.91823 -0.82691,-1.91823 -0.12838,0 -0.37543,-0.32742 -0.549,-0.72761 -0.52628,-1.21337 -3.60842,-5.90231 -5.17402,-7.87135 -1.77303,-2.22994 -8.11393,-8.52188 -10.02408,-9.9467 -0.7534,-0.56197 -1.44644,-1.14574 -1.54008,-1.29725 -0.0936,-0.15152 -0.78691,-0.58745 -1.54059,-0.96873 -0.75369,-0.38128 -1.78442,-1.03386 -2.29052,-1.45017 -0.5061,-0.41632 -1.05707,-0.75694 -1.22438,-0.75694 -0.1673,0 -0.44917,-0.17469 -0.62636,-0.38819 -0.38243,-0.4608 -3.29758,-2.10753 -4.24054,-2.39543 -0.3638,-0.11107 -1.4949,-0.59215 -2.51354,-1.06906 -2.28508,-1.06984 -7.65266,-2.87101 -10.24104,-3.43653 -1.06139,-0.2319 -2.46558,-0.5772 -3.12042,-0.76734 -0.65484,-0.19014 -2.02406,-0.49434 -3.04271,-0.676 -1.01864,-0.18165 -2.03068,-0.48017 -2.24896,-0.66338 -0.21828,-0.18321 -1.11125,-0.39895 -1.98437,-0.47943 -0.87313,-0.0805 -3.07578,-0.32969 -4.89479,-0.55381 -3.93649,-0.48501 -7.20613,-0.51784 -13.32167,-0.13376 -5.41576,0.34013 -12.3856,1.45014 -14.72417,2.34495 -0.3638,0.1392 -2.09021,0.50505 -3.83646,0.813 -6.5363,1.15267 -8.69519,1.7211 -11.64166,3.0652 -0.72761,0.33191 -2.75617,0.95361 -4.50792,1.38155 -1.75175,0.42795 -4.06156,1.18812 -5.13291,1.68929 l -1.94791,0.91121 2.88395,2.89138 c 3.89517,3.9052 6.41478,6.92151 7.44263,8.90983 0.47008,0.90937 0.85708,1.78079 0.85999,1.9365 0.003,0.15571 0.4077,0.75322 0.89952,1.32781 1.02576,1.19836 2.92503,5.49156 3.2085,7.25262 0.10541,0.65485 0.23502,1.26464 0.28804,1.3551 0.16174,0.27597 4.62307,-1.29669 5.69982,-2.00925 0.55581,-0.36782 1.1176,-0.66876 1.24843,-0.66876 0.13082,0 0.37533,-0.16565 0.54336,-0.36811 0.16803,-0.20247 0.86722,-0.45226 1.55375,-0.55511 0.68654,-0.10285 1.31184,-0.28959 1.38957,-0.41498 0.0777,-0.12539 0.47266,0.0362 0.87763,0.35914 0.59648,0.47562 0.74534,0.82024 0.78383,1.81464 0.0578,1.49416 -0.52243,2.2544 -1.90525,2.49623 -0.52573,0.0919 -1.19399,0.31462 -1.48503,0.49484 -0.78666,0.48711 -5.98129,2.71851 -6.81679,2.92821 -0.86386,0.21681 -0.85207,0.0691 -0.19467,2.44138 0.29104,1.05026 0.52917,2.62125 0.52917,3.4911 0,2.09074 0.31481,2.27369 3.26439,1.8971 1.18776,-0.15164 3.44396,-0.35657 5.01378,-0.45539 2.74199,-0.17262 2.87984,-0.15562 3.50573,0.43238 0.88861,0.8348 0.81805,1.57751 -0.248,2.61077 -0.89952,0.87185 -0.89952,0.87185 -4.96094,1.10109 -6.85975,0.3872 -6.57496,0.26518 -6.57496,2.81704 0,0.80734 -0.25791,2.40897 -0.57313,3.55919 -0.34234,1.24916 -0.47552,2.18007 -0.33073,2.31174 0.13332,0.12124 2.38552,0.53505 5.0049,0.91957 5.57846,0.81892 6.04325,1.03575 6.16493,2.87606 0.0713,1.07766 -0.003,1.26157 -0.71736,1.77004 -0.77749,0.55363 -0.85023,0.55781 -2.98993,0.17209 -2.7172,-0.48982 -5.75774,-1.10292 -7.43422,-1.49904 -1.17305,-0.27717 -1.62031,-0.21173 -1.64929,0.24134 -0.0722,1.12865 -2.52407,6.02808 -4.06052,8.11388 -0.53596,0.72761 -1.37536,1.91823 -1.86533,2.64584 -0.48997,0.7276 -1.45977,1.88809 -2.15512,2.57885 -0.69534,0.69077 -1.33386,1.47521 -1.41892,1.7432 -0.0851,0.268 -0.92797,1.11469 -1.87313,1.88155 -0.94517,0.76685 -2.16364,1.80374 -2.70772,2.30419 -0.54407,0.50045 -1.85243,1.50323 -2.90745,2.22839 -1.05503,0.72517 -1.91823,1.4051 -1.91823,1.51096 0,0.49836 -5.66963,3.8114 -11.58234,6.76812 -1.9319,0.96607 -3.98336,2.05371 -4.5588,2.41697 -0.57545,0.36326 -1.10946,0.66048 -1.1867,0.66048 -0.0772,0 -0.64515,0.22185 -1.26203,0.493 -2.57461,1.13169 -10.22882,3.46095 -15.61068,4.75051 -2.98027,0.71411 -3.89177,1.16103 -5.42493,2.65994 -1.95785,1.91411 -2.12804,2.22643 -2.32997,4.27569 -0.18681,1.89586 -0.18681,1.89586 1.58446,3.59043 2.11391,2.02237 2.96707,2.50033 4.75775,2.6654 0.74233,0.0684 2.0987,0.29375 3.01415,0.50071 1.21561,0.27482 1.97264,0.30723 2.80731,0.12018 0.62857,-0.14087 2.55847,-0.38727 4.28867,-0.54757 2.71538,-0.25157 4.7798,-0.5802 7.50322,-1.19441 0.35928,-0.081 0.78801,-0.25918 0.95274,-0.39588 0.16472,-0.13671 0.88279,-0.32725 1.59571,-0.42343 0.71293,-0.0962 1.71295,-0.38788 2.22227,-0.64824 0.50932,-0.26036 1.52135,-0.72593 2.24896,-1.0346 2.76471,-1.17285 8.28691,-4.60498 8.55486,-5.31697 0.0485,-0.12889 0.30965,-0.23435 0.58031,-0.23435 0.27066,0 0.64769,-0.21435 0.83785,-0.47633 0.19015,-0.26198 0.72413,-0.63007 1.18661,-0.81797 0.46249,-0.18791 0.90524,-0.50934 0.98389,-0.7143 0.0907,-0.23627 0.53829,-0.37265 1.22313,-0.37265 0.98245,0 1.11481,0.083 1.46352,0.91755 0.21085,0.50464 0.38337,1.22139 0.38337,1.59275 0,0.74863 -1.10185,2.66126 -1.64022,2.84715 -0.83826,0.28944 2.76861,0.72753 5.95272,0.72301 5.65356,-0.008 18.13519,-0.50122 20.42604,-0.80711 1.16417,-0.15545 2.85798,-0.34768 3.76403,-0.42717 1.64737,-0.14452 1.64737,-0.14452 1.79676,-1.10629 0.56697,-3.65014 0.87664,-4.27321 3.39967,-6.8401 1.54445,-1.5713 2.67228,-2.4992 3.17078,-2.60869 0.42553,-0.0935 1.37218,-0.44721 2.10366,-0.78611 0.73147,-0.3389 2.17364,-0.76407 3.20482,-0.94482 1.03118,-0.18075 1.9344,-0.41299 2.00716,-0.51609 0.26387,-0.37391 6.11821,-0.82961 13.62604,-1.06064 11.29296,-0.3475 15.52699,-0.93027 18.91771,-2.60383 0.65484,-0.32321 1.80485,-0.82191 2.55558,-1.10821 0.75073,-0.2863 1.50403,-0.68812 1.67401,-0.89293 0.16998,-0.20481 0.91041,-0.57212 1.64541,-0.81625 0.73499,-0.24413 2.11014,-0.99479 3.05588,-1.66815 0.94574,-0.67335 2.21045,-1.56679 2.81046,-1.98542 0.60002,-0.41863 2.15155,-1.81556 3.44784,-3.10429 1.2963,-1.28873 2.58481,-2.41548 2.86337,-2.50389 2.59505,-0.82364 2.77784,2.85481 0.30577,6.15323 -0.34718,0.46324 -0.63124,1.01742 -0.63124,1.23152 0,0.2141 -0.62508,0.76213 -1.38906,1.21784 -1.4482,0.86385 -4.75234,3.1959 -6.1947,4.37218 -0.46028,0.37538 -1.50989,0.90454 -2.33246,1.1759 -0.82257,0.27137 -1.75566,0.72986 -2.07353,1.01887 -2.83089,2.57381 -14.79845,5.06856 -24.39046,5.08441 -7.07778,0.0117 -12.88137,0.42732 -15.08125,1.08004 -2.83945,0.84248 -3.55198,1.26791 -5.60287,3.34531 -1.68149,1.70324 -1.93363,2.09152 -2.20405,3.39411 -0.48659,2.34389 -0.1659,3.47188 1.42688,5.01883 1.73515,1.68523 2.31272,2.13286 3.82664,2.96574 0.67677,0.37232 1.35099,0.77115 1.49828,0.88629 0.92956,0.72666 4.89791,1.6916 7.93429,1.92929 2.9666,0.23223 9.10762,0.11587 12.03854,-0.22811 z m -118.56316,-5.2806 c 2.7016,-1.23789 3.80092,-3.30052 2.9508,-5.53652 -0.37139,-0.97681 -2.06377,-1.97715 -2.9105,-1.72035 -2.70269,0.81969 -16.92821,1.28062 -21.77245,0.70546 -2.42961,-0.28847 -3.10886,-0.29827 -3.10886,-0.0449 0,0.63146 2.64497,3.49347 3.5059,3.79359 0.47106,0.16421 1.30329,0.60821 1.84939,0.98666 0.54611,0.37845 1.43981,0.77613 1.98601,0.88373 0.54619,0.1076 1.94558,0.46063 3.10974,0.78452 2.82621,0.78628 5.13309,1.02798 9.26042,0.97025 3.18762,-0.0446 3.56338,-0.10485 5.12955,-0.82248 z m -3.54205,-11.76792 c 4.52499,-0.55668 9.07331,-1.44277 14.15521,-2.75769 5.3825,-1.39269 10.18978,-2.54804 10.60212,-2.54804 0.25992,0 0.6329,-0.16032 0.82885,-0.35627 0.19594,-0.19594 0.82399,-0.44401 1.39565,-0.55125 0.57167,-0.10725 1.48667,-0.42318 2.03335,-0.70207 0.54667,-0.27889 1.26658,-0.50867 1.5998,-0.51062 0.80161,-0.005 4.88835,-1.43481 5.45347,-1.90841 0.24423,-0.20468 1.27749,-0.77166 2.29613,-1.25997 1.01865,-0.48832 2.14974,-1.09852 2.51355,-1.35602 0.3638,-0.25749 1.03199,-0.5217 1.48488,-0.58712 0.92677,-0.13387 1.9547,-0.62113 1.9547,-0.92657 0,-0.18371 3.54428,-2.42503 3.8348,-2.42503 0.17144,0 2.97555,-1.80388 3.63689,-2.33961 0.29774,-0.24118 0.9607,-0.79571 1.47325,-1.23227 0.51255,-0.43656 1.2613,-0.91281 1.66389,-1.05833 1.18115,-0.42694 5.69424,-4.63551 8.17659,-7.62487 0.80036,-0.96383 1.60403,-1.7559 1.78593,-1.76013 0.18191,-0.004 0.33073,-0.24871 0.33073,-0.54326 0,-0.50147 0.96819,-2.12593 2.50108,-4.19639 0.36464,-0.49252 0.92656,-1.4787 1.24872,-2.19152 0.33685,-0.74534 0.72076,-1.24421 0.90353,-1.17407 0.22442,0.0861 0.26313,-0.0825 0.13175,-0.57375 -0.17341,-0.64841 -0.2771,-0.69087 -1.52541,-0.62461 -0.74671,0.0396 -1.75314,-0.10181 -2.2745,-0.31965 -0.51433,-0.2149 -1.60793,-0.53039 -2.43022,-0.7011 -1.20137,-0.24941 -1.544,-0.43908 -1.74416,-0.96553 -0.41231,-1.08445 -0.54988,-2.58375 -0.27492,-2.99615 0.44205,-0.66302 3.0245,-0.3943 6.22324,0.64756 2.98647,0.97272 3.31198,0.95539 3.32226,-0.17696 0.002,-0.24544 0.24134,-1.43607 0.53136,-2.64583 0.84435,-3.522 0.89437,-3.46828 -2.51169,-2.69708 -1.01864,0.23064 -2.56645,0.57156 -3.43958,0.75758 -0.87312,0.18603 -1.79327,0.42372 -2.04477,0.5282 -0.73811,0.30664 -2.05627,-1.19098 -2.05627,-2.33622 0,-1.71027 1.08523,-2.15939 7.06985,-2.92583 1.63285,-0.20911 3.07777,-0.44754 3.21093,-0.52984 0.27701,-0.1712 0.10855,-3.24702 -0.25763,-4.70387 -0.30566,-1.21608 -1.01928,-1.49903 -2.01969,-0.80079 -0.40008,0.27924 -1.32273,0.72841 -2.05034,0.99814 -0.7276,0.26973 -1.97341,0.90267 -2.76846,1.40653 -2.55244,1.61757 -5.30133,1.36878 -5.30133,-0.47981 0,-1.18235 0.24235,-1.56874 1.28556,-2.04965 0.52987,-0.24427 1.4611,-0.77949 2.06941,-1.18938 0.6083,-0.40989 1.21007,-0.74526 1.33726,-0.74526 0.12719,0 0.79127,-0.35515 1.47573,-0.78923 0.68447,-0.43407 1.57098,-0.8675 1.97003,-0.96317 0.39906,-0.0957 1.06839,-0.34686 1.48742,-0.5582 0.74121,-0.37384 0.75823,-0.4284 0.62795,-2.01339 -0.13881,-1.68882 -1.26382,-4.86809 -1.88848,-5.33685 -0.19652,-0.14748 -0.77536,-1.15951 -1.28632,-2.24896 -0.57804,-1.2325 -1.66143,-2.8274 -2.86773,-4.22169 -1.06629,-1.23247 -2.49556,-3.04918 -3.17615,-4.03713 -1.05623,-1.53324 -4.40166,-4.70221 -4.96404,-4.70221 -0.0998,0 -0.81577,-0.62447 -1.5911,-1.3877 -1.39274,-1.37101 -1.40771,-1.40262 -1.24499,-2.62925 0.15242,-1.149 0.0469,-1.46776 -1.41516,-4.27619 -0.86892,-1.66905 -1.77816,-3.73034 -2.02054,-4.58065 -0.37438,-1.31336 -1.23597,-3.23462 -2.98933,-6.66587 -2.80655,-5.49227 -5.5886,-8.77076 -7.44267,-8.77076 -1.36862,0 -8.69125,4.6176 -9.94263,6.26974 -0.4192,0.55347 -2.08217,2.37552 -3.69547,4.04901 -1.61331,1.67349 -3.30047,3.58121 -3.74926,4.23939 -0.44879,0.65817 -1.36198,1.69997 -2.02932,2.3151 -1.21334,1.11843 -1.21334,1.11843 -6.09922,1.11843 -5.69022,0 -11.13097,0.70195 -17.21866,2.22151 -2.03729,0.50853 -4.46617,1.05864 -5.39752,1.22247 -2.13826,0.37613 -5.73454,1.68733 -5.6542,2.06153 0.0334,0.15569 -0.2047,0.36192 -0.52917,0.4583 -1.68887,0.50163 -6.98471,2.85329 -8.47125,3.76173 -0.55118,0.33682 -2.07456,1.08434 -3.3853,1.66114 -3.29738,1.45104 -4.75345,1.38606 -10.96424,-0.4893 -6.67074,-2.01423 -11.92938,-2.84373 -16.69488,-2.63343 -3.70445,0.16348 -3.83152,0.25228 -4.32352,3.02127 -0.29946,1.68538 -0.30474,2.52739 -0.0303,4.83656 0.84492,7.10969 3.23533,19.06779 4.03655,20.19299 0.75656,1.0625 0.58949,3.53621 -0.37185,5.50566 -2.17803,4.462 -3.13111,14.86342 -2.09184,22.82917 0.34379,2.63508 0.21724,2.57966 5.177,2.26697 4.21612,-0.26581 4.21612,-0.26581 4.98973,0.50779 0.74189,0.74189 0.75924,0.81332 0.42326,1.74246 -0.59196,1.63704 -0.84462,1.73663 -5.13477,2.02397 -2.14926,0.14395 -3.99774,0.31735 -4.10773,0.38533 -0.29754,0.18389 2.14602,4.61548 2.71196,4.91836 0.36192,0.19369 0.67261,0.13123 1.20788,-0.24286 0.39634,-0.27699 1.07055,-0.58844 1.49823,-0.69209 0.42769,-0.10366 1.12489,-0.43575 1.54934,-0.73799 0.84191,-0.59949 2.46847,-0.88693 3.52228,-0.62244 0.82476,0.207 1.48515,1.64307 1.26402,2.74872 -0.13241,0.66203 -0.31102,0.8055 -1.17478,0.94362 -0.56026,0.0896 -1.11357,0.3237 -1.2296,0.52024 -0.11602,0.19655 -0.99722,0.61668 -1.95822,0.93363 -3.07562,1.01435 -3.07638,1.01823 -0.67202,3.39059 2.07863,2.05096 2.07863,2.05096 2.69549,1.26325 1.97593,-2.52315 3.88553,-4.09499 4.97496,-4.09499 0.18705,0 0.68201,0.71539 1.09991,1.58975 0.75983,1.58975 0.75983,1.58975 -0.14979,2.53472 -0.50029,0.51974 -1.47516,1.36231 -2.16639,1.87237 -0.69122,0.51007 -1.25677,1.0582 -1.25677,1.21808 0,0.54217 2.53709,2.73961 3.85165,3.33601 0.71925,0.32632 2.08163,0.95823 3.02752,1.40424 1.76921,0.83423 7.63692,2.83118 10.45104,3.55679 1.98279,0.51125 4.00555,0.84022 6.18419,1.00574 0.92745,0.0705 1.76089,0.20726 1.85209,0.30399 0.23759,0.25202 16.4242,-0.0926 18.95122,-0.40346 z m -4.36562,-20.99267 c -1.97127,-0.74976 -2.53003,-1.16694 -3.61844,-2.7016 -0.61924,-0.87313 -1.12997,-1.73633 -1.13497,-1.91823 -0.0286,-1.04167 2.44652,-1.92806 2.80141,-1.00322 0.43104,1.12328 4.05083,2.39602 5.95052,2.09225 1.66764,-0.26667 2.41422,-1.07802 3.12571,-3.39688 0.74859,-2.43979 0.63603,-2.75831 -1.45185,-4.1083 -1.72868,-1.11774 -2.51164,-2.11215 -2.68589,-3.41123 -0.12587,-0.93843 -0.0837,-0.99844 1.18855,-1.69088 1.60851,-0.87546 5.94829,-1.81507 7.37156,-1.59601 1.64433,0.25307 1.8451,0.44879 1.90956,1.86156 0.0512,1.1217 -0.0749,1.46792 -1.0103,2.77419 -0.58783,0.8209 -1.06878,1.68294 -1.06878,1.91566 0,0.69554 2.06423,2.71908 3.50735,3.43822 2.55058,1.27101 5.70973,0.30103 6.66555,-2.04657 0.24915,-0.61196 0.70476,-1.63122 1.01246,-2.26504 0.54462,-1.12183 0.58718,-1.14868 1.60435,-1.01225 1.33394,0.17892 1.5413,0.51193 1.43103,2.29814 -0.074,1.1995 -0.29394,1.75958 -1.24654,3.175 -1.61345,2.39734 -2.05672,2.78922 -3.71403,3.28351 -2.5623,0.7642 -4.91104,0.8252 -6.99072,0.18157 -1.00738,-0.31177 -1.99998,-0.7066 -2.20579,-0.87741 -0.30128,-0.25004 -0.54679,-0.10721 -1.26007,0.7331 -0.48723,0.57401 -1.08486,1.4781 -1.32807,2.0091 -0.71582,1.56288 -2.54279,2.39643 -5.52054,2.51872 -1.58742,0.0652 -2.72109,-0.021 -3.33206,-0.2534 z m -33.60209,-11.21439 c -2.02971,-0.78514 -2.08932,-3.57544 -0.0926,-4.33459 1.78468,-0.67854 18.55852,-5.012 19.40029,-5.012 0.98695,0 1.85293,0.64644 2.20526,1.64619 0.23436,0.66497 -0.29405,1.9629 -0.98286,2.41422 -0.57873,0.3792 -17.40709,5.01715 -19.22876,5.2995 -0.49745,0.0771 -1.08305,0.0711 -1.30133,-0.0133 z m 61.38334,-16.40417 c -1.60241,-0.61984 -2.1355,-2.65411 -0.98,-3.73965 0.70207,-0.65956 18.5891,-5.60693 20.27164,-5.60693 1.00373,0 1.86648,0.63937 2.22131,1.64619 0.23435,0.66496 -0.29406,1.96289 -0.98287,2.41422 -0.57872,0.37919 -17.40709,5.01714 -19.22876,5.2995 -0.49745,0.0771 -1.08304,0.0711 -1.30132,-0.0133 z"
       id="path1" /></g></svg>
