<?xml version="1.0" encoding="UTF-8" standalone="no"?>
<!-- Created with Inkscape (http://www.inkscape.org/) -->

<svg
   width="992.36389mm"
   height="512.84631mm"
   viewBox="0 0 992.36389 512.84632"
   version="1.1"
   id="svg1"
   xml:space="preserve"
   inkscape:export-filename="glob.svg"
   inkscape:export-xdpi="96"
   inkscape:export-ydpi="96"
   xmlns:inkscape="http://www.inkscape.org/namespaces/inkscape"
   xmlns:sodipodi="http://sodipodi.sourceforge.net/DTD/sodipodi-0.dtd"
   xmlns="http://www.w3.org/2000/svg"
   xmlns:svg="http://www.w3.org/2000/svg"><sodipodi:namedview
     id="namedview1"
     pagecolor="#505050"
     bordercolor="#eeeeee"
     borderopacity="1"
     inkscape:showpageshadow="0"
     inkscape:pageopacity="0"
     inkscape:pagecheckerboard="0"
     inkscape:deskcolor="#505050"
     inkscape:document-units="mm" /><defs
     id="defs1" /><g
     inkscape:label="Capa 1"
     inkscape:groupmode="layer"
     id="layer1"
     transform="translate(391.2688,97.329466)"><path
       style="fill:#FC6E83"
       d="m -89.643798,415.36654 c -0.291042,-0.0574 -1.957917,-0.28363 -3.704167,-0.50272 -5.932276,-0.74429 -10.582295,-1.52309 -10.918475,-1.82865 -0.18432,-0.16755 -0.66057,-0.30561 -1.05833,-0.3068 -0.39776,-10e-4 -1.12946,-0.21419 -1.626,-0.47331 -0.49654,-0.25913 -1.58894,-0.58086 -2.42756,-0.71496 -0.83862,-0.1341 -2.33736,-0.61873 -3.33053,-1.07695 -0.99318,-0.45822 -3.19944,-1.47675 -4.9028,-2.26339 -1.70337,-0.78664 -3.76712,-1.88246 -4.58611,-2.43515 -0.819,-0.55269 -1.72721,-1.09666 -2.01825,-1.20883 -1.48473,-0.57217 -7.01175,-5.13853 -10.78489,-8.91033 -3.58231,-3.58105 -6.3909,-7.05643 -8.08872,-10.00909 -0.19403,-0.33743 -0.67333,-1.08647 -1.0651,-1.66452 -1.99259,-2.94001 -6.8724,-14.22093 -6.8724,-15.88728 0,-0.51922 -0.23253,-1.67972 -0.51673,-2.57889 -0.28421,-0.89917 -0.70594,-3.0636 -0.9372,-4.80985 -0.23126,-1.74625 -0.56285,-3.36025 -0.73687,-3.58667 -0.55268,-0.71909 -6.68014,-2.56154 -11.74393,-3.53124 -0.58208,-0.11147 -1.21708,-0.32465 -1.41111,-0.47373 -0.3101,-0.23826 -3.07589,-0.96064 -8.29027,-2.16528 -0.87313,-0.20171 -2.06375,-0.57255 -2.64584,-0.82408 -0.58208,-0.25153 -2.56646,-0.71891 -4.40972,-1.03863 -3.37883,-0.58606 -4.71139,-0.88768 -7.9375,-1.79658 -0.97014,-0.27332 -2.47826,-0.59776 -3.35139,-0.72097 -0.87312,-0.12322 -2.46062,-0.46065 -3.52778,-0.74985 -1.06715,-0.2892 -3.52778,-0.91672 -5.46805,-1.3945 -1.94028,-0.47777 -4.16278,-1.02623 -4.93889,-1.21879 -0.77611,-0.19255 -2.14679,-0.58032 -3.04596,-0.8617 -0.89917,-0.28137 -1.87312,-0.51159 -2.16435,-0.51159 -0.53262,0 -2.22211,-0.48727 -6.78414,-1.95665 -1.35819,-0.43745 -3.42194,-1.06517 -4.58611,-1.39492 -1.16416,-0.32976 -2.43416,-0.73707 -2.82222,-0.90514 -1.16483,-0.50449 -5.93981,-2.15767 -6.7802,-2.34741 -0.43064,-0.0972 -0.96601,-0.39733 -1.18972,-0.66689 -0.22371,-0.26955 -0.64113,-0.4901 -0.9276,-0.4901 -0.48992,0 -2.34132,-0.71908 -3.7095,-1.44077 -0.33691,-0.17771 -0.83341,-0.32312 -1.10333,-0.32312 -0.26992,0 -0.68838,-0.23812 -0.92993,-0.52916 -0.24154,-0.29105 -0.72055,-0.52917 -1.06447,-0.52917 -0.70871,0 -11.36422,-5.38653 -12.65324,-6.39642 -0.46273,-0.36252 -0.98629,-0.65914 -1.16348,-0.65914 -0.17718,0 -1.22733,-0.58837 -2.33367,-1.3075 -1.10634,-0.71913 -2.56453,-1.61243 -3.24043,-1.98512 -3.53335,-1.94826 -10.87045,-7.54936 -16.22529,-12.3863 -2.67709,-2.41817 -9.03036,-9.53005 -10.41747,-11.66135 -0.63139,-0.97014 -1.4845,-2.06631 -1.8958,-2.43593 -0.4113,-0.36962 -0.74782,-0.86612 -0.74782,-1.10333 0,-0.23721 -0.24752,-0.63672 -0.55005,-0.8878 -0.82236,-0.6825 -5.24085,-7.49274 -6.35346,-9.79263 -0.5343,-1.10445 -1.09789,-2.24621 -1.25242,-2.53726 -2.8967,-5.45548 -6.04576,-12.58751 -7.47671,-16.93333 -0.28749,-0.87312 -0.94981,-2.77812 -1.47181,-4.23333 -0.522,-1.45521 -1.07647,-3.43958 -1.23214,-4.40972 -0.15567,-0.97014 -0.45473,-2.24014 -0.66457,-2.82223 -0.20984,-0.58208 -0.47015,-1.50169 -0.57847,-2.04357 -0.10832,-0.54189 -0.408,-1.06624 -0.66595,-1.16522 -0.25796,-0.099 -1.51741,0.3002 -2.79879,0.88708 -1.28138,0.58689 -2.77216,1.16582 -3.31284,1.28652 -0.87514,0.19535 -1.71002,0.50919 -4.15806,1.56303 -0.38806,0.16705 -1.57868,0.5637 -2.64584,0.88144 -1.06715,0.31774 -2.4959,0.79348 -3.175,1.0572 -0.67909,0.26372 -2.42534,0.90005 -3.88055,1.41408 -2.53006,0.89369 -4.65131,1.68904 -6.17361,2.31474 -0.38806,0.1595 -1.26118,0.39663 -1.94028,0.52695 -0.6791,0.13032 -2.02847,0.60202 -2.99861,1.04821 -1.87025,0.86019 -4.91021,1.93093 -5.48212,1.93093 -0.1882,0 -1.17484,0.40247 -2.19253,0.89438 -1.01769,0.49191 -3.62371,1.35244 -5.79114,1.91229 l -3.94079,1.01792 -2.51065,-0.6458 c -3.72388,-0.95787 -4.48027,-1.67495 -6.74042,-6.39013 -0.63345,-1.32152 -0.74717,-3.77865 -0.22924,-4.9531 0.28722,-0.65129 0.71633,-1.69405 0.95358,-2.31724 0.64893,-1.70453 3.52052,-4.21512 5.34236,-4.67073 0.84752,-0.21195 1.77907,-0.54163 2.07011,-0.73261 0.29104,-0.19098 0.68792,-0.40154 0.88195,-0.4679 0.19403,-0.0664 0.9084,-0.32174 1.5875,-0.56751 0.67909,-0.24577 1.94909,-0.67313 2.82222,-0.9497 0.87312,-0.27657 2.06375,-0.67331 2.64583,-0.88166 0.58209,-0.20834 3.2407,-1.12751 5.90803,-2.0426 2.66734,-0.91509 4.95598,-1.77008 5.08588,-1.89998 0.1299,-0.1299 0.48754,-0.23716 0.79475,-0.23835 0.30721,-0.001 1.00378,-0.2344 1.54793,-0.51823 1.12983,-0.58931 7.21773,-2.6546 7.82503,-2.6546 0.22119,0 1.18594,-0.3736 2.14389,-0.83021 0.95794,-0.45661 2.21797,-0.94482 2.80005,-1.0849 0.96249,-0.23163 4.60493,-1.56418 6.35,-2.32308 0.38805,-0.16876 1.23219,-0.41041 1.87585,-0.53701 0.64366,-0.12661 1.59616,-0.45237 2.11666,-0.72393 0.52051,-0.27156 1.13923,-0.49472 1.37494,-0.49592 0.88234,-0.004 1.01636,-1.4039 0.7266,-7.58689 -0.33814,-7.21528 -0.0818,-23.44752 0.48077,-30.44936 0.20757,-2.58312 0.2986,-4.77537 0.20231,-4.87167 -0.0963,-0.0963 -15.10791,-0.16107 -33.35914,-0.14395 -23.4827,0.022 -34.12721,-0.0898 -36.4102,-0.38261 -3.22576,-0.41369 -3.22637,-0.41396 -5.139,-2.28129 -2.39203,-2.33537 -2.95351,-3.65485 -2.95351,-6.94076 0,-2.84092 0.45112,-4.04799 2.43592,-6.51781 2.35846,-2.93479 -0.6308,-2.73138 41.30852,-2.8109 l 37.21806,-0.0706 0.61681,-1.16416 c 0.33925,-0.64028 0.61706,-1.75624 0.61736,-2.47991 9.1e-4,-2.18055 1.34317,-8.78651 2.20563,-10.85508 0.31877,-0.76456 0.7883,-2.83263 1.56181,-6.87916 0.11127,-0.58209 0.32278,-1.21709 0.47003,-1.41111 0.14724,-0.19403 0.38113,-0.90841 0.51973,-1.5875 0.23388,-1.14586 0.73253,-2.96592 1.64309,-5.99723 0.20399,-0.67909 0.68427,-1.90318 1.06729,-2.72018 0.97198,-2.07329 0.76666,-3.35818 -0.58786,-3.67898 -0.58209,-0.13786 -2.01084,-0.57488 -3.175,-0.97116 -1.16417,-0.39627 -3.14855,-1.03523 -4.40973,-1.41991 -3.6345,-1.10856 -7.88233,-2.54339 -8.55007,-2.88804 -0.33692,-0.17389 -0.81317,-0.31715 -1.05833,-0.31834 -0.24517,-0.001 -0.87163,-0.22436 -1.39214,-0.49592 -0.52051,-0.27156 -1.47301,-0.60111 -2.11667,-0.73234 -1.47651,-0.30102 -3.3327,-0.8674 -4.69806,-1.43352 -0.58209,-0.24135 -2.01084,-0.71548 -3.175,-1.05363 -1.16417,-0.33815 -2.9898,-0.91945 -4.05695,-1.29178 -2.35637,-0.82215 -5.15664,-1.66689 -6.35,-1.91556 -0.97779,-0.20375 -2.13634,-0.64815 -3.64456,-1.39799 -0.5493,-0.27309 -1.29782,-0.49653 -1.66337,-0.49653 -0.75166,0 -3.5092,-0.85523 -5.09901,-1.58141 -0.58209,-0.26588 -2.64584,-0.92187 -4.58611,-1.45776 -1.94028,-0.53588 -3.84092,-1.18255 -4.22364,-1.43703 -0.38272,-0.25448 -1.01772,-0.46614 -1.41111,-0.47035 -0.39339,-0.004 -2.30275,-0.57194 -4.24303,-1.26163 -1.94028,-0.68968 -4.32153,-1.48649 -5.29167,-1.77068 -3.49244,-1.02308 -3.90329,-1.15354 -5.46806,-1.73634 -0.87312,-0.3252 -2.6236,-0.88242 -3.88995,-1.23827 -3.52455,-0.99042 -7.0991,-2.7243 -8.18996,-3.97264 -2.00936,-2.299462 -2.46328,-3.613162 -2.32982,-6.742897 0.10805,-2.533904 0.25794,-3.077852 1.29196,-4.688675 1.10732,-1.725015 2.49429,-2.850643 4.7798,-3.879176 1.98631,-0.893882 4.86122,-0.50117 10.27825,1.404003 1.3582,0.477678 3.10445,1.058295 3.88056,1.290259 0.77611,0.231965 1.96673,0.633669 2.64583,0.892677 0.6791,0.259007 2.2666,0.745307 3.52778,1.080665 1.26118,0.335358 3.13083,0.986882 4.15478,1.44783 1.02395,0.460949 2.1352,0.837303 2.46945,0.836343 0.58187,-0.0017 2.73575,0.640745 5.37021,1.601722 0.6791,0.247715 2.18723,0.718507 3.35139,1.046204 1.16417,0.327698 2.98979,0.90992 4.05695,1.293827 1.06715,0.383907 2.4959,0.856381 3.175,1.049941 2.42825,0.692113 6.53238,2.167475 6.86153,2.466597 0.18432,0.16751 0.70699,0.30456 1.16148,0.30456 0.4545,0 2.96458,0.71438 5.57797,1.5875 2.61339,0.87313 4.92114,1.5875 5.12834,1.5875 0.2072,0 1.35631,0.38046 2.55357,0.84546 1.19725,0.46499 3.12933,1.12202 4.2935,1.46006 4.19885,1.21922 5.48204,1.66505 5.67062,1.97018 0.10552,0.17073 0.50699,0.31042 0.89216,0.31042 0.38518,0 2.3205,0.56931 4.30071,1.26513 1.98022,0.69583 4.2354,1.41647 5.01151,1.60142 0.77611,0.18496 2.28423,0.66248 3.35139,1.06117 3.02102,1.12864 3.4897,1.18319 3.72968,0.43409 0.43878,-1.36964 1.32163,-3.54271 2.13243,-5.24882 0.46237,-0.97293 0.84066,-1.89445 0.84066,-2.04783 0,-0.47349 1.46355,-3.5399 2.16112,-4.52796 0.36361,-0.51502 0.66111,-1.154395 0.66111,-1.420834 0,-0.486357 0.80953,-2.132871 3.78432,-7.696925 2.48656,-4.650859 4.74233,-8.573034 5.3767,-9.348611 0.3174,-0.388055 0.88565,-1.340555 1.26279,-2.116666 0.37713,-0.776111 1.00387,-1.884068 1.39275,-2.462126 0.38887,-0.578059 0.8658,-1.329141 1.05983,-1.669072 1.29839,-2.274744 8.76366,-12.496667 13.11236,-17.954275 2.96955,-3.726787 4.90833,-5.913488 11.24284,-12.680534 2.27933,-2.434972 12.53825,-12.201483 13.61896,-12.965277 1.12018,-0.791685 1.42735,-1.818039 1.59141,-5.317315 0.0876,-1.867714 0.29542,-3.792718 0.46191,-4.277787 0.26465,-0.771057 0.85037,-4.46269 2.15493,-13.581944 0.1943,-1.3581944 0.51112,-3.1044443 0.70405,-3.8805554 0.19293,-0.776111 0.57531,-2.9192359 0.84972,-4.76249972 0.63757,-4.28255678 1.05769,-6.39233328 2.24795,-11.28888788 0.21224,-0.873125 0.63711,-2.778125 0.94414,-4.233334 0.30703,-1.455208 0.69425,-2.963333 0.86048,-3.351388 0.47571,-1.110534 1.42025,-4.300784 1.80907,-6.110293 0.81729,-3.803518 1.85468,-7.130005 3.48527,-11.175817 0.5474,-1.358195 1.50388,-3.97757 2.12551,-5.820833 0.927,-2.748743 5.83048,-13.524449 7.06338,-15.522222 0.17961,-0.291042 0.5837,-1.037802 0.89798,-1.659468 0.31428,-0.621665 0.79492,-1.315791 1.06809,-1.542501 0.27317,-0.22671 0.49667,-0.637315 0.49667,-0.912456 0,-0.27514 0.2974,-0.93039 0.6609,-1.456109 0.36349,-0.52572 1.71555,-2.543354 3.00458,-4.483632 3.25563,-4.900474 7.40092,-9.810439 12.20952,-14.461786 1.88162,-1.820091 6.05632,-5.11738 6.47911,-5.11738 0.11478,0 1.28361,-0.771918 2.59742,-1.715373 3.33015,-2.391404 7.16236,-4.287155 11.4144,-5.646574 1.24478,-0.397968 2.97761,-0.992159 3.85074,-1.320424 7.5703,-2.846174 25.11975,-2.933996 38.80555,-0.194194 2.68356,0.53723 8.53872,2.153359 10.58334,2.921193 1.06715,0.400758 2.73402,0.87912 3.70416,1.063029 1.65891,0.314478 2.94221,0.698434 4.58611,1.372146 0.38806,0.159035 2.61056,1.077559 4.93889,2.041165 2.32834,0.963606 4.86834,1.965272 5.64445,2.225924 0.77611,0.260653 2.109441,0.834232 2.962957,1.274622 0.853517,0.44039 1.725446,0.800708 1.937621,0.800708 0.500516,0 11.868247,5.589964 12.56192,6.177194 0.291042,0.246382 1.799167,1.124429 3.351389,1.951215 1.552222,0.826786 2.980973,1.62383 3.175,1.771209 0.194028,0.147379 1.384653,0.817215 2.645834,1.488524 4.470233,2.379445 5.827056,3.145114 6.35,3.583367 0.291041,0.243908 0.811742,0.543819 1.157112,0.666469 0.34537,0.122651 2.338673,1.377093 4.429563,2.78765 2.09089,1.410557 4.049745,2.723399 4.353012,2.917427 2.700326,1.727647 8.816104,5.859735 11.33573,7.658915 1.709049,1.220374 3.931549,2.801879 4.938889,3.514455 1.00734,0.712576 2.545903,1.862169 3.419028,2.554651 0.873125,0.692482 2.980286,2.284357 4.682581,3.5375 3.055813,2.249535 3.118473,2.276074 4.938889,2.091806 1.014094,-0.10265 2.161308,-0.318134 2.549363,-0.478853 1.334942,-0.552886 3.885908,-1.091741 6.551904,-1.383996 1.469241,-0.161063 3.006617,-0.472273 3.416391,-0.691577 0.409774,-0.219304 1.229452,-0.398735 1.821506,-0.398735 0.592055,0 1.753429,-0.153671 2.580831,-0.341491 0.827403,-0.187819 4.0443686,-0.679735 7.1488131,-1.093145 3.1044445,-0.41341 5.76914717,-0.828219 5.92156144,-0.921798 0.38668055,-0.237412 3.93045676,-0.783615 8.71871666,-1.343818 2.2313198,-0.261054 6.0413198,-0.7838 8.4666668,-1.161659 5.029873,-0.783632 10.823673,-1.395538 17.4625,-1.844282 2.522362,-0.170496 5.697362,-0.465962 7.055556,-0.656589 1.358195,-0.190628 5.009445,-0.529368 8.113889,-0.752755 3.104445,-0.223388 8.450761,-0.631902 11.880704,-0.907811 9.082245,-0.730586 60.181203,-0.71276 71.022073,0.02478 11.71319,0.796884 22.192,1.649836 22.49615,1.831138 0.14913,0.08889 2.53038,0.295997 5.29166,0.460229 6.28082,0.373561 11.09174,0.886307 17.19136,1.832249 2.61938,0.406218 6.11188,0.865847 7.76111,1.021398 3.47452,0.327706 7.32276,0.892712 10.58333,1.553865 1.26119,0.255732 4.27744,0.728626 6.70278,1.050876 2.42535,0.322249 4.98377,0.735062 5.68538,0.917362 0.7016,0.1823 1.83315,0.331454 2.51455,0.331454 0.6814,0 1.77423,0.217471 2.42852,0.48327 0.65428,0.265798 2.28088,0.589738 3.61465,0.719867 1.33378,0.130128 3.39753,0.482957 4.58612,0.784063 1.18858,0.301107 3.07491,0.713606 4.19183,0.916666 1.91922,0.348918 2.07595,0.322903 2.85322,-0.473583 1.25703,-1.288101 3.97023,-3.293032 8.30153,-6.13445 0.29576,-0.194028 1.81564,-1.219278 3.37751,-2.278334 7.41292,-5.026498 12.63546,-8.481387 12.82078,-8.481387 0.11223,0 0.53178,-0.294438 0.93234,-0.654307 0.40056,-0.359869 1.44267,-1.034556 2.3158,-1.499306 0.87312,-0.464749 2.20663,-1.281561 2.96334,-1.815137 0.75672,-0.533577 1.52187,-0.970139 1.70033,-0.970139 0.17846,0 1.02952,-0.485084 1.89125,-1.077963 0.86172,-0.59288 2.08095,-1.308756 2.70939,-1.590836 0.62845,-0.282079 2.41263,-1.21128 3.96485,-2.064891 1.55223,-0.85361 5.19251,-2.761505 8.08951,-4.239765 2.89701,-1.478261 5.43701,-2.827953 5.64445,-2.999316 0.20743,-0.171362 1.09153,-0.592336 1.96465,-0.935497 0.87313,-0.343161 2.07874,-0.99231 2.67914,-1.442553 0.60039,-0.450242 1.36853,-0.818623 1.70696,-0.818623 0.33843,0 2.10375,-0.714375 3.92294,-1.5875 1.81918,-0.873125 3.49918,-1.5875 3.73332,-1.5875 0.23413,0 0.67632,-0.221569 0.98264,-0.492377 0.30632,-0.270808 1.3507,-0.757352 2.32084,-1.081209 0.97014,-0.323857 3.11326,-1.108859 4.7625,-1.744448 1.64923,-0.635589 3.55423,-1.353923 4.23333,-1.596297 0.6791,-0.242375 2.74285,-0.980452 4.58611,-1.640172 1.84327,-0.659721 3.7216,-1.201093 4.17408,-1.20305 0.45248,-0.002 1.9606,-0.383933 3.35139,-0.848837 1.39078,-0.464904 3.63995,-1.107882 4.99814,-1.428841 1.3582,-0.320958 3.2632,-0.806103 4.23334,-1.0781 3.41476,-0.957393 8.50755,-1.685444 16.22778,-2.319881 8.86138,-0.728216 22.24259,0.08413 28.39861,1.724016 2.81027,0.748624 7.31088,2.339804 8.68576,3.070838 0.80925,0.430281 1.8957,0.888833 2.41435,1.019004 1.155,0.289887 5.69288,3.108562 9.31659,5.786948 3.49786,2.585361 10.24122,9.304853 13.21877,13.17199 1.29133,1.677118 2.34786,3.164286 2.34786,3.304817 0,0.14053 0.43656,0.767095 0.97014,1.392364 0.53358,0.62527 1.44639,1.915207 2.02847,2.866526 1.90454,3.112652 3.36739,5.601751 3.71447,6.320319 0.18743,0.388056 0.49992,0.983368 0.69441,1.322917 1.65405,2.887694 4.2776,8.525202 5.54085,11.906249 0.47121,1.261181 1.24311,3.116662 1.71532,4.123293 0.47221,1.00663 0.85856,1.993432 0.85856,2.192892 0,0.199461 0.26013,0.963354 0.57807,1.697541 1.03081,2.380375 1.43739,3.553826 2.60157,7.508496 0.42838,1.455208 1.00003,3.147271 1.27033,3.760139 0.27029,0.612869 0.7523,2.200369 1.07112,3.527778 0.31883,1.327409 0.70318,2.730971 0.85411,3.119026 0.27812,0.71502 0.43869,1.412705 1.05549,4.586111 0.71212,3.663804 1.96366,8.9941768 2.4849,10.5833331 0.19092,0.5820833 0.44092,2.1695833 0.55556,3.52777762 0.11464,1.35819438 0.36197,2.76755248 0.54964,3.13190688 0.18766,0.3643544 0.46868,1.4756043 0.62448,2.4694443 0.15581,0.99384 0.46571,2.8326036 0.68868,4.0861415 0.43258,2.4319976 1.65595,11.2736666 2.12524,15.3597286 0.61848,5.385076 1.14246,8.076631 1.74359,8.956511 0.34618,0.506696 0.90164,1.369558 1.23436,1.917471 0.63153,1.039967 3.98544,2.77282 6.22921,3.218424 0.66247,0.131564 1.60136,0.376727 2.08643,0.544806 5.04822,1.749233 7.47326,2.641692 8.76403,3.225317 0.84265,0.381005 2.43015,1.024952 3.52778,1.430993 1.09763,0.406041 2.47194,1.072981 3.05403,1.482089 0.58208,0.409107 1.7727,1.106982 2.64583,1.550831 4.34462,2.208573 10.75892,5.962761 11.29838,6.612767 0.23632,0.284754 0.66294,0.517734 0.94805,0.517734 0.52048,0 0.87854,0.246204 4.61746,3.174999 2.55118,1.998402 5.07796,3.959238 5.5375,4.297218 5.8236,4.28312 16.79975,14.949854 22.57978,21.943259 1.74515,2.111498 3.86004,4.651498 4.69976,5.644444 1.59463,1.885604 5.3524,7.449597 5.3524,7.925104 0,0.15105 0.47625,0.730913 1.05834,1.288584 0.58208,0.557672 1.05833,1.135948 1.05833,1.285059 0,0.149111 0.6265,1.165459 1.39222,2.258559 0.76572,1.0931 1.45073,2.163 1.52224,2.37754 0.12948,0.38844 3.54549,-0.42872 4.93006,-1.17934 0.33691,-0.18265 0.97985,-0.3321 1.42875,-0.3321 0.4489,0 0.96973,-0.15355 1.15741,-0.34123 0.46198,-0.46199 4.63297,-1.77544 5.63808,-1.77544 0.44407,0 1.25682,-0.22344 1.80612,-0.49653 1.40035,-0.696203 2.444,-1.076662 4.87929,-1.778727 1.16416,-0.335616 2.59291,-0.815073 3.175,-1.065459 0.58208,-0.250386 1.77271,-0.653065 2.64583,-0.894841 2.14984,-0.595311 5.66213,-1.71508 6.52639,-2.080708 1.18465,-0.501171 4.61156,-1.444838 5.24689,-1.444838 0.32932,0 0.95037,-0.221047 1.3801,-0.491217 0.84593,-0.531822 2.95016,-1.265533 8.71884,-3.040117 2.03729,-0.626719 5.54612,-1.755429 7.7974,-2.508244 4.4115,-1.475184 6.39352,-1.6764 8.17713,-0.83015 2.85204,1.353174 4.07834,2.406948 5.37413,4.618051 0.73855,1.260245 0.87634,1.94578 0.87634,4.359915 0,2.654412 -0.0879,3.001974 -1.19845,4.738026 -0.65915,1.030409 -1.65134,2.194199 -2.20486,2.586189 -1.32702,0.93976 -5.78255,2.81917 -7.40501,3.12355 -0.70705,0.13264 -2.09662,0.54495 -3.08792,0.91624 -3.02499,1.13301 -4.56103,1.64382 -6.0357,2.00719 -0.77611,0.19124 -2.76049,0.82685 -4.40972,1.41247 -1.64924,0.58563 -3.63361,1.21851 -4.40973,1.40641 -0.77611,0.1879 -2.28423,0.65696 -3.35138,1.04234 -1.06716,0.38539 -2.97216,1.0232 -4.23334,1.41735 -1.26118,0.39415 -3.16618,1.03795 -4.23333,1.43067 -1.06715,0.39272 -2.57528,0.87067 -3.35139,1.0621 -0.77611,0.19144 -2.99861,0.90547 -4.93889,1.58673 -1.94028,0.68126 -3.85462,1.24527 -4.2541,1.25335 -0.39948,0.008 -1.03448,0.24777 -1.41111,0.53265 -0.37664,0.28487 -1.04413,0.52299 -1.48333,0.52916 -0.43919,0.006 -1.07419,0.16038 -1.41111,0.34269 -0.33691,0.18231 -1.05593,0.42516 -1.59782,0.53968 -0.54188,0.11452 -1.07435,0.44043 -1.18327,0.72426 -0.10891,0.28382 0.38874,1.90628 1.10589,3.60545 0.71715,1.69918 1.47077,3.72442 1.67472,4.50053 0.20394,0.77611 0.58621,1.66174 0.84949,1.96806 0.26328,0.30632 0.4787,0.81288 0.4787,1.1257 0,0.31282 0.15875,0.66688 0.35277,0.7868 0.19403,0.11991 0.35278,0.57378 0.35278,1.00859 0,0.43482 0.15629,0.94686 0.3473,1.13787 0.19101,0.19101 0.49698,1.29432 0.67992,2.4518 0.18294,1.15748 0.64236,3.21576 1.02093,4.57396 0.37857,1.35819 0.95691,3.89819 1.28519,5.64444 0.32829,1.74625 0.81565,3.96875 1.08302,4.93889 0.81017,2.93961 1.19942,5.46236 1.44245,9.34861 0.12741,2.03729 0.39174,3.90607 0.5874,4.15284 0.28075,0.35409 4.56811,0.44361 20.33849,0.42465 20.0138,-0.0241 22.34957,0.065 24.04181,0.91679 1.12385,0.56568 3.50127,3.1542 3.50127,3.81215 0,0.26673 0.23813,0.68258 0.52917,0.92413 0.40501,0.33613 0.52916,1.25671 0.52916,3.92375 0,1.91652 -0.13949,3.48458 -0.30998,3.48458 -0.17048,0 -0.49737,0.4524 -0.7264,1.00534 -0.22904,0.55294 -1.10512,1.68125 -1.94685,2.50734 -2.55931,2.51177 -2.64286,2.51952 -25.94098,2.40652 l -20.28116,-0.0984 -0.22641,1.05833 c -0.12452,0.58209 -0.24519,1.72528 -0.26815,2.54043 -0.023,0.81515 -0.29792,2.40265 -0.61104,3.52778 -0.71125,2.55571 -2.43678,9.75833 -2.8565,11.92346 -0.11284,0.58208 -0.40133,1.37583 -0.64108,1.76389 -0.23975,0.38805 -0.54216,1.41993 -0.67202,2.29305 -0.12986,0.87313 -0.7836,2.72604 -1.45276,4.11758 -0.66917,1.39154 -1.21667,2.61231 -1.21667,2.71282 0,0.38918 -3.23843,7.04244 -4.06583,8.35313 -0.48018,0.76065 -0.87306,1.54635 -0.87306,1.74598 0,0.19964 -0.88059,1.714 -1.95686,3.36525 -1.07628,1.65125 -1.86973,3.14326 -1.76324,3.31557 0.1065,0.17232 1.10615,0.59379 2.22145,0.93659 1.1153,0.34281 2.34096,0.83374 2.72368,1.09096 0.38272,0.25723 0.9598,0.46768 1.2824,0.46768 0.86684,0 4.11106,1.04151 6.20198,1.99106 1.00663,0.45714 2.00985,0.83116 2.22938,0.83116 0.21953,0 1.53905,0.45659 2.93227,1.01465 1.39321,0.55806 3.96186,1.46108 5.70811,2.00672 1.74625,0.54563 3.42563,1.20029 3.73195,1.45479 0.30631,0.2545 0.79782,0.46273 1.09223,0.46273 0.29441,0 1.86941,0.49648 3.5,1.10329 1.63059,0.6068 3.9439,1.46005 5.14068,1.8961 3.78543,1.37922 6.05805,3.92467 7.08603,7.93672 0.70059,2.73425 -1.71764,8.225 -4.20987,9.55879 -1.52673,0.81709 -4.7264,1.41314 -6.37505,1.18759 -1.14238,-0.15629 -1.67569,-0.10288 -1.67569,0.16783 0,0.2184 0.58712,1.46361 1.30471,2.76713 0.71759,1.30353 1.50074,3.32255 1.74032,4.48671 0.23958,1.16417 0.78904,3.38667 1.22104,4.93889 1.01909,3.66179 1.11074,11.54637 0.18425,15.85051 -1.51473,7.03689 -2.05011,8.75174 -3.97264,12.72449 -2.48273,5.13037 -3.62946,6.95492 -7.76027,12.34722 -2.35193,3.07018 -11.37633,12.05478 -13.81928,13.75834 -0.83473,0.58208 -2.40916,1.73302 -3.49874,2.55763 -1.08958,0.82462 -2.09703,1.49931 -2.23879,1.49931 -0.14175,0 -0.94744,0.57864 -1.79042,1.28587 -0.84297,0.70723 -2.00893,1.48656 -2.59102,1.73184 -0.58208,0.24529 -1.48735,0.78349 -2.01171,1.196 -0.52436,0.41252 -1.71499,1.08095 -2.64584,1.48541 -0.93084,0.40446 -2.00995,1.00118 -2.398,1.32604 -0.38806,0.32487 -1.62668,0.89009 -2.7525,1.25605 -1.12582,0.36597 -2.12764,0.79595 -2.22626,0.95552 -0.20999,0.33978 -3.11003,1.69938 -3.62478,1.69938 -0.19358,0 -0.87698,0.30034 -1.51866,0.66743 -0.64168,0.36709 -2.91294,1.2501 -5.04725,1.96226 -2.1343,0.71215 -4.15621,1.44368 -4.49313,1.62562 -0.33691,0.18194 -0.84746,0.3308 -1.13455,0.3308 -0.2871,0 -1.04331,0.21739 -1.68049,0.48309 -3.0565,1.27456 -5.29728,1.90652 -8.9196,2.51557 -1.55223,0.26099 -3.93348,0.73632 -5.29167,1.0563 -2.69741,0.63547 -4.61194,0.9123 -10.75972,1.55576 -2.23132,0.23354 -5.40632,0.61448 -7.05556,0.84654 -4.02525,0.56636 -23.41468,0.54651 -30.1625,-0.0309 -11.78211,-1.00816 -17.11982,-1.58956 -20.81389,-2.26712 -2.1343,-0.39147 -5.38868,-0.93555 -7.23194,-1.20907 -4.90179,-0.72738 -6.48914,-1.0154 -10.38779,-1.88485 -1.97475,-0.44039 -3.97968,-0.69126 -4.58611,-0.57386 -2.20729,0.42733 -3.95362,0.89036 -5.83999,1.54845 -1.06716,0.3723 -3.05153,0.78781 -4.40972,0.92337 -1.3582,0.13555 -3.2632,0.45774 -4.23334,0.71596 -0.97014,0.25822 -2.79576,0.63919 -4.05694,0.84658 -1.26118,0.2074 -3.32493,0.55259 -4.58611,0.76709 -1.26118,0.2145 -3.72181,0.52793 -5.46806,0.6965 -1.74625,0.16857 -3.88937,0.4705 -4.7625,0.67095 -0.87312,0.20045 -2.46062,0.3781 -3.52778,0.39477 -1.06715,0.0167 -3.28859,0.22983 -4.93652,0.47367 l -2.99625,0.44336 -0.25161,1.92295 c -0.70162,5.36207 -1.20657,7.53933 -2.40959,10.3896 -0.16379,0.38806 -0.40518,1.10243 -0.53643,1.5875 -0.55658,2.057 -4.55005,9.73742 -6.72792,12.93945 -2.36665,3.47958 -5.87643,7.64942 -9.09327,10.80336 -1.72112,1.68746 -7.03323,5.8716 -8.92131,7.02695 -0.54581,0.33399 -1.2305,0.76159 -1.52154,0.95023 -3.17577,2.0584 -11.7525,6.12453 -13.85004,6.56614 -0.62866,0.13236 -2.01614,0.52756 -3.0833,0.87821 -2.51508,0.82642 -8.44955,1.91603 -14.55702,2.67277 -4.94606,0.61284 -9.84381,0.54221 -13.55013,-0.19541 -0.93641,-0.18636 -2.73444,-0.50194 -3.99562,-0.70128 -1.26119,-0.19934 -3.00744,-0.53288 -3.88056,-0.74119 -0.87313,-0.20831 -2.06375,-0.47158 -2.64583,-0.58503 -0.58209,-0.11346 -1.37584,-0.40244 -1.76389,-0.6422 -0.38806,-0.23975 -1.40109,-0.53924 -2.25118,-0.66553 -2.23503,-0.33204 -9.49819,-3.66979 -13.44743,-6.1797 -1.06716,-0.67822 -2.32647,-1.44295 -2.79849,-1.69941 -2.385,-1.29583 -7.28699,-5.37876 -10.43068,-8.68783 -6.34458,-6.67836 -7.30982,-8.01635 -10.27367,-14.24099 -1.50835,-3.16783 -1.82965,-3.61322 -2.60272,-3.60792 -3.07212,0.021 -25.06181,1.4562 -32.29984,2.10804 -2.14567,0.19324 -5.40005,0.35393 -7.23194,0.35708 -1.8319,0.003 -5.15635,0.16088 -7.38767,0.35048 -2.23132,0.18961 -12.78819,0.50278 -23.45972,0.69594 -10.67153,0.19316 -26.73335,0.51158 -35.69293,0.7076 -11.10795,0.24302 -21.937687,0.23989 -34.043056,-0.01 -9.764097,-0.20144 -25.372903,-0.50492 -34.686236,-0.67439 -18.063525,-0.3287 -27.59487,-0.71328 -45.3319457,-1.82911 -6.1118752,-0.3845 -14.3668753,-0.84895 -18.3444453,-1.03212 -3.977569,-0.18317 -8.566436,-0.50053 -10.197482,-0.70524 -2.36243,-0.2965 -3.057436,-0.27835 -3.417408,0.0892 -0.248528,0.25379 -1.248391,2.04894 -2.221918,3.98922 -3.512083,6.99973 -10.105357,14.8766 -16.093294,19.22639 -0.934848,0.6791 -2.030825,1.55951 -2.435505,1.95648 -0.96397,0.9456 -4.667643,3.43397 -6.413485,4.30901 -5.97846,2.99648 -8.000041,3.91282 -9.84452,4.46231 -1.164166,0.34681 -3.080783,0.93995 -4.259148,1.31809 -2.982095,0.95694 -8.43985,2.06522 -10.170226,2.06522 -0.795239,0 -2.55708,0.23537 -3.915202,0.52304 -2.1299,0.45115 -8.095488,0.6658 -9.701257,0.34907 z m 11.465278,-19.90868 c 6.370104,-1.37004 8.173865,-1.86172 11.255044,-3.06797 1.727636,-0.67635 4.100763,-1.85326 5.273617,-2.61537 1.172854,-0.7621 2.258273,-1.38564 2.412042,-1.38564 0.394372,0 3.340859,-2.27484 5.224575,-4.03365 2.917966,-2.72446 6.28124,-6.55466 7.07676,-8.05923 3.318178,-6.27565 4.912494,-10.03626 5.791138,-13.6599 1.227435,-5.0621 1.362843,-6.31061 1.243475,-11.46528 -0.264727,-11.43172 -0.155588,-12.19111 2.087589,-14.52559 3.835137,-3.99123 9.435588,-4.45482 13.925741,-1.15272 1.540833,1.13314 3.389186,3.80249 3.389186,4.89458 0,0.376 0.167302,1.12367 0.371782,1.66149 0.219432,0.57715 0.37687,4.26237 0.384199,8.99312 0.0098,6.33219 0.11087,8.05303 0.481276,8.19517 0.257871,0.099 5.680919,0.43013 12.0512172,0.73594 11.8369057,0.56824 18.7029458,0.93848 29.9268048,1.61374 3.4925,0.21012 13.0175,0.52482 21.166667,0.69934 8.149167,0.17451 18.071042,0.4806 22.048611,0.68019 9.002415,0.45173 64.638686,0.4728 74.436116,0.0282 3.97757,-0.1805 12.07382,-0.41866 17.99166,-0.52923 11.076,-0.20696 28.55684,-0.97513 36.33612,-1.59674 2.42534,-0.19381 5.83847,-0.3506 7.58472,-0.34845 3.13566,0.004 18.71444,-0.96113 20.13699,-1.24736 0.71881,-0.14463 0.73082,-0.28304 0.5726,-6.59737 -0.23814,-9.50416 0.68529,-13.66481 3.6938,-16.64287 2.77389,-2.74583 6.23192,-3.55796 9.90353,-2.32588 3.10256,1.04113 4.12466,1.79811 5.66677,4.19693 l 1.27198,1.97862 -0.0956,7.70084 c -0.0943,7.59779 0.43344,13.76167 1.42482,16.64083 0.44488,1.29201 2.21989,5.25638 3.00112,6.70278 0.31439,0.58208 0.92581,1.77449 1.35871,2.64981 2.64391,5.34592 9.07171,11.82016 15.83118,15.94556 4.90127,2.99131 6.98607,3.80367 13.42636,5.23167 1.74199,0.38625 3.72637,0.8576 4.40972,1.04745 0.68336,0.18985 3.63177,0.34607 6.55201,0.34715 4.13262,0.002 6.00936,-0.16049 8.46667,-0.73093 1.73642,-0.4031 3.79213,-0.86924 4.56824,-1.03588 2.7385,-0.58797 5.32901,-1.31274 6.01188,-1.682 0.37999,-0.20548 1.78699,-0.87915 3.12666,-1.49703 1.33966,-0.61789 2.60966,-1.27748 2.82222,-1.46576 0.21255,-0.18827 0.96619,-0.68756 1.67475,-1.10951 4.35468,-2.59328 11.75614,-10.11521 13.89649,-14.12267 2.7212,-5.09502 4.40249,-9.59711 5.10348,-13.66584 1.02308,-5.93828 1.11013,-7.54918 0.68875,-12.74586 -0.23167,-2.85721 -0.3104,-5.79409 -0.17494,-6.52638 0.54422,-2.94201 3.59932,-6.8584 5.75093,-7.37222 0.53002,-0.12657 1.12242,-0.34531 1.31645,-0.4861 0.91926,-0.66701 3.34681,-0.67717 5.39584,-0.0226 3.80476,1.21548 6.17768,3.19031 7.55348,6.28631 0.64046,1.44123 0.71867,1.49369 1.97268,1.32304 0.71817,-0.0977 2.57577,-0.34801 4.128,-0.55616 1.55222,-0.20816 3.69534,-0.52006 4.7625,-0.69312 1.06715,-0.17306 3.68652,-0.49213 5.82083,-0.70904 2.13431,-0.21691 4.67431,-0.60279 5.64444,-0.85751 1.82472,-0.47909 3.40616,-0.79803 8.81945,-1.77868 1.74625,-0.31635 3.81,-0.78839 4.58611,-1.049 0.77611,-0.2606 2.52236,-0.72924 3.88056,-1.04141 3.5759,-0.82191 6.14302,-1.6248 6.37016,-1.99232 0.10883,-0.17608 0.60375,-0.32015 1.09984,-0.32015 0.88728,0 3.5045,-0.75362 5.58277,-1.60754 0.58209,-0.23916 1.53459,-0.62499 2.11667,-0.85739 0.58208,-0.23241 1.50776,-0.646 2.05706,-0.91909 0.5493,-0.27309 1.28393,-0.49653 1.6325,-0.49653 0.34857,0 0.8314,-0.23813 1.07294,-0.52917 0.24154,-0.29104 0.72786,-0.52917 1.08071,-0.52917 0.35285,0 0.7321,-0.14653 0.84279,-0.32563 0.11069,-0.1791 0.68186,-0.4312 1.26926,-0.56021 1.14302,-0.25105 7.60906,-3.3541 11.09474,-5.32437 1.16417,-0.65804 2.94826,-1.60448 3.96464,-2.1032 1.01639,-0.49872 1.96889,-1.10233 2.11667,-1.34134 0.14778,-0.23902 1.05459,-0.88858 2.01513,-1.44346 0.96054,-0.55489 2.40279,-1.49948 3.20501,-2.09909 0.80221,-0.59961 2.13071,-1.56645 2.95221,-2.14853 5.50973,-3.90398 16.00999,-14.76233 19.7894,-20.46428 0.29104,-0.43909 1.4284,-2.12613 2.52747,-3.74898 2.33302,-3.44484 7.42435,-13.29634 8.453,-16.35618 0.39137,-1.16417 1.075,-2.91042 1.51919,-3.88056 0.44419,-0.97014 1.15208,-3.24224 1.57308,-5.04911 0.421,-1.80687 0.90244,-3.55312 1.06985,-3.88055 0.16741,-0.32744 0.47362,-1.38909 0.68046,-2.35922 0.20684,-0.97014 0.62768,-2.87514 0.9352,-4.23334 0.30752,-1.35819 0.80844,-3.58069 1.11315,-4.93889 0.8843,-3.94152 1.50262,-5.82219 2.82536,-8.59355 0.68155,-1.42798 1.10579,-2.72499 0.94274,-2.88224 -0.30933,-0.29833 -2.02807,-0.95903 -8.23395,-3.16518 -2.03729,-0.72425 -4.10104,-1.47843 -4.58611,-1.67595 -0.48507,-0.19753 -1.83444,-0.62401 -2.99861,-0.94774 -2.07835,-0.57794 -2.82216,-0.85058 -4.93889,-1.81029 -0.58208,-0.26392 -1.53458,-0.58605 -2.11666,-0.71584 -0.58209,-0.1298 -1.85209,-0.59498 -2.82223,-1.03373 -1.91676,-0.86688 -5.24855,-1.92964 -6.04946,-1.92964 -0.27521,0 -1.28358,-0.39688 -2.24081,-0.88195 -0.95724,-0.48507 -1.94777,-0.88194 -2.20119,-0.88194 -0.42779,0 -5.19528,-1.72241 -6.79465,-2.45479 -0.38805,-0.1777 -1.08585,-0.43047 -1.55066,-0.56172 -1.09055,-0.30794 -3.6911,-2.70766 -4.6956,-4.33299 -1.09251,-1.76771 -1.08686,-6.82933 0.01,-8.59284 1.04552,-1.68159 3.56705,-3.97649 5.00196,-4.55239 2.47392,-0.9929 7.41643,-0.42091 11.85028,1.37141 3.06559,1.23922 9.43111,3.52043 11.60944,4.16048 1.16417,0.34207 2.4298,0.83239 2.81253,1.08961 0.38272,0.25722 0.98018,0.46767 1.3277,0.46767 0.34751,0 0.9075,0.146 1.24442,0.32445 0.33692,0.17844 1.60814,0.67531 2.82493,1.10414 1.2168,0.42884 2.29773,0.91785 2.40207,1.08667 0.10434,0.16883 0.45816,0.30258 0.78626,0.29722 0.7508,-0.0123 10.50316,3.10172 11.76199,3.75567 0.5142,0.26712 2.7367,1.13541 4.93889,1.92954 2.2022,0.79413 5.75024,2.07654 7.88455,2.8498 8.44799,3.0607 10.70354,3.86493 13.69021,4.88132 1.70878,0.58152 3.25171,1.0573 3.42874,1.0573 0.37631,0 2.51567,-3.21542 3.99021,-5.99722 0.56566,-1.06715 1.22779,-2.1784 1.4714,-2.46944 0.24361,-0.29104 0.56164,-0.92604 0.70673,-1.41111 0.1451,-0.48507 0.87825,-2.16962 1.62923,-3.74343 0.75098,-1.57382 1.36542,-2.97287 1.36542,-3.10901 0,-0.13614 0.3854,-1.07098 0.85645,-2.07741 1.08828,-2.32521 3.58258,-10.15149 3.89997,-12.23682 0.2568,-1.68727 0.60608,-3.1897 1.48706,-6.3966 0.3002,-1.09279 0.47835,-2.1893 0.39588,-2.4367 -0.12035,-0.36106 -8.67295,-0.45627 -43.34673,-0.48256 -33.21379,-0.0252 -43.42038,-0.1324 -44.16423,-0.46396 -1.60698,-0.71628 -4.11557,-3.27462 -4.85908,-4.95547 -1.0075,-2.2776 -0.96379,-6.12024 0.0939,-8.25378 0.84519,-1.70491 2.48204,-3.30267 4.49792,-4.39048 1.18858,-0.64138 2.86624,-0.66997 44.89097,-0.76505 41.01712,-0.0928 43.65586,-0.13544 43.64975,-0.70555 -0.009,-0.86951 -1.01274,-6.43176 -1.22111,-6.7689 -0.0962,-0.1556 -0.33736,-1.2934 -0.536,-2.52845 -0.86526,-5.37988 -1.38328,-8.01542 -1.93215,-9.83027 -0.32275,-1.06716 -0.72988,-2.49591 -0.90473,-3.175 -0.17486,-0.6791 -0.64817,-2.10785 -1.05182,-3.175 -0.40364,-1.06716 -0.97982,-2.65466 -1.2804,-3.52778 -0.5973,-1.73508 -2.34486,-6.20035 -3.14568,-8.03766 -0.27771,-0.63718 -0.50494,-1.38187 -0.50494,-1.65488 0,-0.86359 -0.59994,-0.91933 -2.53166,-0.23523 -1.03294,0.36581 -2.98931,0.99239 -4.34751,1.3924 -1.35819,0.40001 -3.30152,1.04118 -4.31851,1.42482 -1.01699,0.38363 -2.52511,0.80902 -3.35139,0.94531 -0.82627,0.13628 -1.66107,0.3694 -1.8551,0.51803 -0.53295,0.40825 -6.7769,2.47174 -7.49047,2.47544 -0.34288,0.002 -1.41717,0.39368 -2.3873,0.87091 -0.97014,0.47723 -1.99083,0.87265 -2.26819,0.87872 -0.71194,0.0156 -5.07153,1.47342 -5.47529,1.83094 -0.18432,0.16321 -0.6738,0.29675 -1.08773,0.29675 -0.41392,0 -0.87155,0.11896 -1.01694,0.26435 -0.14539,0.14539 -1.00528,0.44696 -1.91088,0.67016 -0.90559,0.2232 -2.51965,0.71931 -3.58681,1.10246 -3.15313,1.13213 -5.6707,1.84359 -6.5237,1.84359 -0.43903,0 -0.98153,0.22086 -1.20556,0.49079 -0.22403,0.26994 -0.83878,0.57437 -1.36611,0.67652 -0.52734,0.10215 -1.51442,0.35104 -2.19352,0.55309 -3.07248,0.91414 -4.9618,1.497 -7.58472,2.33989 -1.55222,0.49882 -3.45722,1.08438 -4.23333,1.30126 -0.77611,0.21687 -1.72861,0.57663 -2.11667,0.79946 -0.38805,0.22283 -1.73743,0.69001 -2.99861,1.03818 -1.26118,0.34816 -2.68993,0.79276 -3.175,0.988 -1.87961,0.75651 -4.7015,1.33781 -6.49437,1.33781 -1.41701,0 -2.19068,-0.21501 -3.17346,-0.88194 -0.71479,-0.48507 -1.43284,-0.88195 -1.59568,-0.88195 -0.53306,0 -2.81933,-2.77723 -3.36875,-4.09217 -1.24157,-2.97148 -0.42325,-7.41159 1.82021,-9.87621 1.13392,-1.24571 4.51195,-2.88429 7.87316,-3.81904 1.26118,-0.35073 3.06918,-0.95094 4.01777,-1.33381 0.9486,-0.38286 3.09172,-1.07077 4.7625,-1.52868 1.67078,-0.45792 4.22841,-1.22329 5.68362,-1.70082 1.45521,-0.47754 3.43958,-1.11578 4.40972,-1.41831 0.97014,-0.30253 2.87514,-0.94527 4.23334,-1.42831 1.35819,-0.48303 2.89663,-0.88499 3.41876,-0.89322 0.52212,-0.008 1.03836,-0.15905 1.14718,-0.33513 0.10883,-0.17609 1.03101,-0.56396 2.04929,-0.86195 4.91476,-1.43823 9.31009,-2.85976 14.02227,-4.53506 2.11096,-0.7505 3.2132,-1.08628 5.64444,-1.7195 1.44231,-0.37566 3.23212,-0.98925 5.11528,-1.75365 1.51293,-0.61412 10.17178,-3.36511 11.46528,-3.64262 0.48507,-0.10406 1.18659,-0.41203 1.55894,-0.68438 0.64626,-0.47268 0.57419,-0.63456 -1.5875,-3.56567 -8.37797,-11.359965 -16.84706,-20.77225 -24.66589,-27.412923 -3.64191,-3.093139 -7.727,-6.409123 -8.41817,-6.833264 -0.31618,-0.194028 -1.18575,-0.81451 -1.93238,-1.37885 -1.92605,-1.455812 -3.75508,-2.678094 -4.00751,-2.678094 -0.11859,0 -0.70685,-0.369456 -1.30725,-0.821013 -2.38439,-1.793289 -15.36156,-8.703987 -16.34468,-8.703987 -0.53815,0 -0.54737,0.180904 -0.0901,1.766218 0.70546,2.44556 1.40838,7.812662 1.40838,10.753595 0,2.55163 -0.10804,3.110455 -0.71964,3.722052 -1.15829,1.158289 -2.3514,1.468901 -3.45337,0.899047 -1.18273,-0.611612 -5.16547,-5.044155 -5.77323,-6.425238 -0.24548,-0.557857 -0.53916,-1.09366 -0.6526,-1.190674 -0.49318,-0.421761 -4.21782,-5.666445 -4.21782,-5.939136 0,-0.165831 -0.34042,-0.603928 -0.75648,-0.973549 -0.41607,-0.36962 -1.2495,-1.401176 -1.85209,-2.292346 -0.60258,-0.89117 -2.00841,-2.827407 -3.12407,-4.30275 -1.11566,-1.475343 -2.02847,-2.844343 -2.02847,-3.042221 0,-0.197879 -0.67469,-1.150694 -1.49931,-2.117367 -2.63392,-3.087654 -4.49792,-5.565235 -4.49792,-5.978513 0,-0.220736 -0.13765,-0.401339 -0.30589,-0.401339 -0.16825,0 -0.75775,-0.674688 -1.31,-1.499306 -1.18493,-1.769313 -1.2087,-1.926188 -2.9792,-19.66736 -0.37759,-3.783541 -0.82465,-7.593541 -0.99347,-8.466666 -0.16882,-0.873125 -0.50411,-2.619375 -0.74509,-3.8805554 -0.88484,-4.6309334 -1.48314,-7.6146611 -1.76849,-8.819444 -0.16084,-0.67909715 -0.54678,-2.2926534 -0.85765,-3.5856806 -0.31086,-1.2930271 -0.56521,-2.8566593 -0.56521,-3.4747382 0,-1.1267145 -1.36263,-6.6986818 -2.28502,-9.3437468 -0.27065,-0.776111 -0.59247,-2.025967 -0.71516,-2.777458 -0.1227,-0.75149 -0.3723,-1.624615 -0.55467,-1.940277 -0.51408,-0.889788 -2.44237,-7.08156 -2.44237,-7.842475 0,-0.680649 -0.0853,-0.904077 -1.17503,-3.078795 -0.32387,-0.646314 -0.58886,-1.414387 -0.58886,-1.706829 0,-0.292442 -0.45339,-1.511278 -1.00755,-2.708524 -0.55415,-1.197247 -1.13134,-2.566846 -1.28264,-3.043553 -0.47322,-1.49098 -2.96527,-6.45903 -5.95979,-11.881194 -0.94797,-1.716491 -2.13859,-3.916579 -2.64583,-4.889083 -1.30025,-2.492936 -3.81135,-5.586117 -8.50697,-10.478908 -4.09081,-4.262591 -6.6969,-6.339603 -10.19802,-8.127657 -1.04926,-0.535866 -2.09341,-1.128387 -2.32033,-1.316713 -0.81938,-0.680029 -6.41714,-2.549267 -9.17748,-3.064603 -4.56507,-0.852265 -19.0455,-1.02438 -24.69444,-0.293518 -2.52237,0.326344 -5.06237,0.754143 -5.64445,0.950665 -1.91405,0.64622 -3.49131,1.033574 -6.17361,1.51616 -1.45521,0.261813 -3.51896,0.742395 -4.58611,1.067959 -1.06715,0.325564 -2.4959,0.725061 -3.175,0.887771 -0.6791,0.16271 -1.9491,0.467335 -2.82222,0.676945 -1.40028,0.336162 -2.32999,0.663698 -5.11528,1.802094 -0.38806,0.158605 -1.10243,0.396678 -1.5875,0.52905 -0.48507,0.132373 -1.6757,0.589354 -2.64584,1.015514 -2.20882,0.970288 -3.91654,1.593405 -5.33653,1.947211 -0.60676,0.151181 -1.79739,0.634254 -2.64583,1.073495 -0.84845,0.439241 -1.964,1.015981 -2.47901,1.281645 -0.51501,0.265664 -1.18264,0.483025 -1.48364,0.483025 -0.30099,0 -1.11775,0.387141 -1.81501,0.860313 -0.69725,0.473172 -1.85524,1.052678 -2.5733,1.287791 -1.28303,0.420102 -7.43595,3.540627 -9.68464,4.911687 -0.63026,0.384275 -1.37155,0.699276 -1.64731,0.700001 -0.27577,7.25e-4 -0.75202,0.225567 -1.05834,0.499648 -0.30632,0.27408 -1.50944,1.011074 -2.67361,1.637763 -1.16416,0.626689 -3.06916,1.668058 -4.23333,2.314154 -1.16417,0.646095 -2.91042,1.597603 -3.88056,2.114462 -0.97014,0.516859 -3.41224,2.04247 -5.42689,3.390247 -2.01465,1.347777 -3.91965,2.543794 -4.23333,2.657815 -0.31368,0.11402 -1.01908,0.577167 -1.56754,1.029214 -0.54846,0.452047 -1.15055,0.821904 -1.33798,0.821904 -0.18742,0 -1.20034,0.635 -2.25092,1.411111 -1.05059,0.776111 -2.06143,1.411111 -2.24632,1.411111 -0.18489,0 -1.10448,0.601568 -2.04353,1.336818 -0.93906,0.73525 -3.31751,2.410466 -5.28545,3.722701 -1.96793,1.312236 -3.85785,2.695043 -4.19981,3.072904 -0.34196,0.377861 -0.82974,0.687021 -1.08396,0.687021 -0.25422,0 -1.00464,0.47625 -1.66759,1.058333 -0.66296,0.582083 -1.35272,1.058333 -1.53281,1.058333 -0.18008,0 -0.79413,0.451357 -1.36454,1.003015 -0.57041,0.551659 -1.75148,1.462985 -2.62461,2.025171 -0.87312,0.562185 -1.6701,1.132772 -1.77106,1.26797 -0.415,0.555723 -2.28025,0.995511 -4.22221,0.995511 -2.1346,0 -3.80776,-0.285558 -8.647,-1.475783 -1.55223,-0.381773 -4.25098,-0.911583 -5.99723,-1.177356 -3.61624,-0.550381 -5.92016,-0.961945 -9.70139,-1.733029 -1.4552,-0.296753 -3.9952,-0.705622 -5.64444,-0.9086 -4.89535,-0.602487 -7.81796,-1.078065 -9.90092,-1.61111 -1.07988,-0.27635 -2.76478,-0.502455 -3.74421,-0.502455 -0.97944,0 -2.6359,-0.165568 -3.68102,-0.367929 -1.04513,-0.202361 -3.40836,-0.519677 -5.25163,-0.705147 -1.84326,-0.185469 -4.70076,-0.578904 -6.35,-0.874299 -1.64923,-0.295395 -4.98298,-0.6802 -7.40833,-0.855122 -5.3582,-0.386447 -12.04517,-0.936407 -19.57917,-1.610259 -14.76044,-1.320196 -17.63375,-1.408077 -46.037499,-1.408077 -27.975582,0 -29.754791,0.05155 -44.273612,1.28284 -2.328334,0.197457 -6.138334,0.500192 -8.466667,0.672745 -10.218449,0.757288 -17.098386,1.36727 -19.226389,1.70463 -1.261181,0.19994 -3.721806,0.538525 -5.468056,0.752412 -1.74625,0.213887 -4.690055,0.618233 -6.541788,0.898546 -1.851734,0.280313 -3.931482,0.50966 -4.6216632,0.50966 -0.6901812,0 -1.7151266,0.157872 -2.2776564,0.350827 -1.2807216,0.439303 -4.5703292,0.945241 -9.1366706,1.405209 -3.5294668,0.355523 -7.3562724,0.995557 -11.9944448,2.006074 -1.358194,0.295909 -3.739444,0.741815 -5.291667,0.990903 -1.552222,0.249087 -3.298472,0.613806 -3.880555,0.810486 -0.582084,0.196681 -2.010834,0.551714 -3.175,0.788963 -1.164167,0.237248 -2.592917,0.559364 -3.175,0.715812 -2.215546,0.595477 -4.976729,0.68731 -6.892175,0.229223 -1.597013,-0.381933 -2.615057,-1.009624 -5.581474,-3.441345 -1.995503,-1.635814 -3.974025,-3.20633 -4.396714,-3.490034 -0.42269,-0.283704 -2.356027,-1.721863 -4.296305,-3.195908 -3.539827,-2.689237 -13.870228,-9.723443 -18.640043,-12.692432 -1.402714,-0.873125 -3.100668,-2.000593 -3.773229,-2.505485 -1.544217,-1.159245 -11.354627,-7.092438 -14.628395,-8.847041 -1.358194,-0.727936 -4.612569,-2.440798 -7.231944,-3.806361 -2.619376,-1.365563 -5.000626,-2.631285 -5.291667,-2.812715 -1.335326,-0.83242 -10.582546,-4.81403 -13.962476,-6.011873 -0.9854,-0.349225 -2.41415,-0.943352 -3.175,-1.320283 -0.76085,-0.37693 -2.33586,-0.95909 -3.50002,-1.29369 -1.16417,-0.334599 -2.63799,-0.837055 -3.27517,-1.116567 -0.63717,-0.279513 -1.46124,-0.508205 -1.83126,-0.508205 -0.37002,0 -0.75705,-0.136369 -0.86006,-0.303041 -0.10301,-0.166673 -1.06046,-0.405666 -2.12768,-0.531096 -1.85265,-0.217743 -4.43897,-0.828786 -6.7225,-1.588255 -2.29018,-0.76168 -7.39904,-1.235896 -14.74611,-1.368769 -10.81044,-0.195508 -15.08861,0.609773 -22.2021,4.179107 -3.41148,1.711777 -6.7354,4.261767 -11.32486,8.68801 -4.8569,4.684184 -9.80436,11.984316 -14.29449,21.091975 -3.17732,6.444776 -4.22628,8.835942 -5.18197,11.812622 -0.34262,1.067153 -0.99507,2.724051 -1.4499,3.681996 -0.45483,0.957944 -0.8337,1.989819 -0.84194,2.293055 -0.008,0.303236 -0.41411,1.662587 -0.90194,3.020782 -1.30613,3.63645 -1.66346,4.9301 -2.80309,10.147812 -0.32909,1.506713 -0.73796,2.825769 -0.90861,2.931236 -0.17065,0.105467 -0.31027,0.687911 -0.31027,1.2943217 0,0.6064103 -0.22625,1.9861038 -0.50279,3.0659855 -0.27653,1.0798818 -0.77875,3.2334213 -1.11605,4.7856435 -0.3373,1.55222213 -0.73417,3.060347 -0.88195,3.3513887 -0.14777,0.2910417 -0.45922,2.1166666 -0.69211,4.0569442 -0.7214,6.0102804 -0.93572,7.4154144 -1.32197,8.6671494 -0.43957,1.424537 -0.99358,5.113413 -1.50635,10.030072 -0.20235,1.940278 -0.50137,4.797777 -0.66448,6.35 -0.4416,4.202493 -1.06169,7.217809 -1.84997,8.995832 -0.74437,1.678992 -2.1976,3.448738 -3.1442,3.829015 -0.63199,0.253888 -7.00523,6.113519 -11.37519,10.458485 -2.9241,2.90737 -7.28056,7.665152 -10.98289,11.994641 -1.16135,1.358086 -2.19995,2.548622 -2.308,2.645636 -0.10804,0.09701 -1.20174,1.486076 -2.43044,3.086805 -1.22869,1.600729 -2.37291,2.910417 -2.54269,2.910417 -0.16978,0 -0.31039,0.198437 -0.31245,0.440972 -0.002,0.242534 -0.63537,1.234722 -1.40736,2.204861 -0.77199,0.970139 -1.4053,1.937722 -1.40736,2.150185 -0.002,0.212462 -0.34055,0.688712 -0.7522,1.058333 -0.86842,0.779758 -3.30461,4.195497 -4.45401,6.244876 -0.436,0.777396 -1.16979,1.907804 -1.63065,2.512017 -0.46085,0.604213 -1.85037,2.972313 -3.08782,5.262444 -1.23745,2.290131 -2.92632,5.383235 -3.75304,6.873561 -0.82672,1.49033 -1.60336,2.94782 -1.72587,3.23886 -0.1225,0.29104 -1.01268,2.19604 -1.97816,4.23333 -0.96549,2.03729 -1.89503,4.02167 -2.06565,4.40973 -0.17062,0.38805 -0.44949,0.94368 -0.61971,1.23472 -0.17021,0.29104 -0.63287,1.36187 -1.02813,2.37961 -0.52499,1.35178 -0.60818,1.91921 -0.30872,2.10562 0.76156,0.47405 5.82042,2.17668 11.43358,3.84815 1.01829,0.30323 1.94047,0.69538 2.04929,0.87147 0.10883,0.17608 0.56714,0.32015 1.01848,0.32015 0.95296,0 4.20489,0.92769 5.48775,1.5655 0.48507,0.24118 1.83444,0.71705 2.99861,1.05749 1.16417,0.34045 2.98979,0.93005 4.05694,1.31022 1.06716,0.38017 3.21028,1.02059 4.7625,1.42316 1.55223,0.40257 3.67542,1.10832 4.7182,1.56834 1.04279,0.46002 2.11101,0.8364 2.37383,0.8364 0.7662,0 5.80338,1.76337 6.80726,2.38302 1.58015,0.97537 3.24565,2.68062 3.9469,4.04112 0.91105,1.76751 0.97026,7.44068 0.0914,8.755 -1.19101,1.78108 -2.46903,2.90645 -4.43376,3.90419 -2.46014,1.24932 -4.58974,1.33317 -7.33518,0.28882 -1.06441,-0.4049 -2.57029,-0.88803 -3.3464,-1.07363 -1.79873,-0.43014 -6.59212,-2.08902 -7.05556,-2.44176 -0.19403,-0.14768 -1.10879,-0.38106 -2.03281,-0.51862 -0.92402,-0.13756 -1.76682,-0.39054 -1.8729,-0.56218 -0.10608,-0.17164 -0.48814,-0.31207 -0.84902,-0.31207 -0.36088,0 -1.10558,-0.22666 -1.65488,-0.50369 -0.5493,-0.27703 -2.0306,-0.76819 -3.29178,-1.09147 -1.26118,-0.32329 -2.53118,-0.70304 -2.82222,-0.84391 -0.29104,-0.14086 -1.71979,-0.61567 -3.175,-1.05513 -1.45521,-0.43945 -4.07459,-1.27441 -5.82084,-1.85545 -1.74625,-0.58104 -3.81,-1.20933 -4.58611,-1.39619 -0.77611,-0.18685 -2.74165,-0.80923 -4.36786,-1.38306 -3.42209,-1.20752 -4.1161,-1.27474 -4.39778,-0.42596 -0.11268,0.33954 -0.45499,1.25236 -0.76069,2.02847 -0.67641,1.71728 -1.78374,5.26013 -2.09498,6.70277 -0.43509,2.01676 -0.83488,3.53278 -1.20941,4.58612 -0.20697,0.58208 -0.63034,2.32833 -0.94084,3.88055 -0.70975,3.54818 -1.24366,5.44831 -1.78427,6.35 -0.23267,0.38806 -0.53165,1.92937 -0.66442,3.42515 l -0.24141,2.71958 27.10445,0.10299 c 25.45819,0.0967 27.19014,0.14246 28.51555,0.75281 3.46023,1.59345 4.88565,4.17858 4.8933,8.87447 0.005,2.921 -0.0792,3.3089 -1.04907,4.8488 -0.57984,0.92059 -1.72237,2.16514 -2.53896,2.76567 -1.32174,0.97202 -1.88147,1.12784 -5.09916,1.41958 -1.98795,0.18023 -15.04445,0.31501 -29.01445,0.29951 -13.97,-0.0155 -25.59843,-0.0185 -25.84097,-0.007 -0.26415,0.013 -0.44097,0.51385 -0.44097,1.24918 0,0.67516 -0.23899,2.46109 -0.53109,3.96875 -0.93467,4.82421 -1.30443,30.13369 -0.45262,30.98067 0.13806,0.13727 0.93181,-0.0649 1.76389,-0.4492 0.83208,-0.38433 2.62412,-1.06728 3.98232,-1.51767 1.35819,-0.45038 3.60385,-1.26524 4.99034,-1.8108 1.38649,-0.54555 3.42943,-1.22856 4.53987,-1.51779 1.11043,-0.28923 2.21622,-0.68958 2.4573,-0.88966 0.24108,-0.20008 1.84939,-0.85256 3.57402,-1.44996 1.72463,-0.5974 3.29444,-1.21291 3.48847,-1.3678 0.19403,-0.1549 1.6829,-0.61496 3.30862,-1.02237 1.62571,-0.4074 3.13383,-0.88468 3.35139,-1.06062 0.21755,-0.17594 1.10992,-0.56714 1.98304,-0.86934 0.87313,-0.30219 2.46063,-0.88849 3.52778,-1.30287 1.06716,-0.41438 2.25778,-0.83265 2.64584,-0.92949 0.38805,-0.0968 1.02305,-0.29934 1.41111,-0.44999 0.38805,-0.15066 1.65805,-0.566 2.82222,-0.92299 1.16417,-0.35699 3.09484,-1.0936 4.29039,-1.63692 1.19555,-0.54331 2.4816,-0.98784 2.85788,-0.98784 0.37628,0 1.3909,-0.37579 2.25471,-0.83508 3.6169,-1.92313 8.81953,-2.5074 11.49859,-1.29132 3.26867,1.48371 5.71405,5.13802 5.72784,8.55953 0.0111,2.74184 -0.76426,4.57427 -2.81264,6.6476 -1.09023,1.10351 -2.40952,2.07958 -3.00288,2.22166 -0.58208,0.13939 -1.85208,0.63174 -2.82222,1.09411 -0.97014,0.46237 -2.63702,1.10779 -3.70417,1.43427 -1.06715,0.32649 -2.25778,0.78469 -2.64583,1.01824 -0.38806,0.23354 -1.65806,0.70688 -2.82223,1.05186 -1.16416,0.34498 -2.98979,0.93974 -4.05694,1.32169 -1.06715,0.38195 -2.97215,1.01205 -4.23333,1.40022 -1.26118,0.38817 -2.68993,0.9169 -3.175,1.17496 -0.48507,0.25806 -2.3107,0.9534 -4.05695,1.54521 -4.75505,1.61149 -5.57845,1.89914 -6.35,2.21834 -0.95553,0.39532 -4.78456,1.80859 -7.58472,2.79948 -1.26118,0.44629 -2.76931,1.00254 -3.35139,1.23612 -0.58208,0.23357 -1.69333,0.6261 -2.46944,0.87229 -0.77612,0.24619 -1.91136,0.66133 -2.52276,0.92255 -0.61141,0.26121 -1.50478,0.47493 -1.98528,0.47493 -0.4805,0 -1.06452,0.23001 -1.29782,0.51112 -0.23331,0.28112 -1.00681,0.69294 -1.71889,0.91517 -3.12686,0.97582 -7.30968,2.58226 -7.50443,2.88213 -0.21333,0.32846 0.41818,3.48778 1.03716,5.18879 0.18208,0.50035 0.60692,2.17973 0.9441,3.73196 0.33717,1.55222 0.89671,3.37784 1.24341,4.05694 0.82323,1.61253 2.10312,5.28251 2.10312,6.03056 0,0.91409 3.24862,7.91021 5.86359,12.62763 0.60513,1.09167 3.70096,5.817 5.80502,8.86051 4.17833,6.04397 12.20127,14.35904 17.64011,18.28244 1.63374,1.17853 3.46848,2.54727 4.07719,3.04165 0.60872,0.49438 1.22087,0.89888 1.36035,0.89888 0.13948,0 0.83766,0.46259 1.55153,1.02798 0.71386,0.56539 2.08608,1.46305 3.04937,1.9948 3.66595,2.02364 12.66467,6.50221 13.06481,6.50221 0.23006,0 0.61593,0.23813 0.85747,0.52917 0.24155,0.29104 0.71748,0.52917 1.05763,0.52917 0.58497,0 3.00302,0.97249 6.1975,2.49252 0.78887,0.37536 1.55554,0.68248 1.70372,0.68248 0.14819,0 1.249,0.37354 2.44626,0.8301 1.19726,0.45655 3.04996,1.03199 4.11711,1.27875 1.06716,0.24675 2.65466,0.755 3.52778,1.12944 0.87313,0.37443 1.905,0.8129 2.29306,0.97436 0.38805,0.16147 1.65805,0.45492 2.82222,0.65212 1.16417,0.1972 2.67229,0.51924 3.35139,0.71565 5.0468,1.45968 6.38226,1.79836 7.9375,2.01301 0.97014,0.13389 2.87514,0.55448 4.23333,0.93465 1.3582,0.38017 3.22699,0.83036 4.15288,1.00042 0.92589,0.17006 2.19589,0.47093 2.82223,0.6686 2.6425,0.83395 6.97438,1.88638 9.60545,2.33362 3.97728,0.67609 5.72518,1.09611 7.83751,1.88339 1.01216,0.37723 2.64466,0.79651 3.62777,0.93172 0.98311,0.13521 2.6156,0.56305 3.62776,0.95075 1.01216,0.38771 2.39592,0.83023 3.07501,0.98339 1.35837,0.30635 4.60576,1.14262 7.01928,1.80759 1.4047,0.38702 1.59489,0.36378 2.01357,-0.24606 0.87141,-1.26926 2.43291,-2.61504 3.66715,-3.16054 0.6791,-0.30013 1.50561,-0.69377 1.83668,-0.87475 2.39765,-1.31067 7.20566,-0.24246 10.00685,2.22324 2.81128,2.47459 2.95646,3.08093 2.96539,12.38481 0.007,7.71193 0.047,8.18004 0.8897,10.51616 0.48507,1.34473 0.88194,2.89107 0.88194,3.43631 0,0.9574 0.87302,4.015 1.76984,6.19854 0.91173,2.21984 1.01389,2.49043 1.22167,3.23578 0.1175,0.42149 1.17826,2.24711 2.35725,4.05695 2.57794,3.95732 8.30503,9.66614 12.46585,12.42607 4.59959,3.05098 10.44759,5.58166 14.11178,6.10678 0.582084,0.0834 1.375834,0.29356 1.763889,0.46699 0.388056,0.17342 1.644215,0.47949 2.791465,0.68015 1.14725,0.20066 2.165896,0.44483 2.263657,0.54259 0.09776,0.0978 2.572228,0.17566 5.498814,0.17311 3.918957,-0.003 6.157681,-0.18457 8.496065,-0.68749 z M 98.739538,271.06499 c -7.103388,-0.90019 -9.310483,-1.72426 -15.548699,-5.80553 -3.115761,-2.03844 -9.498523,-7.96031 -9.498523,-8.81264 0,-0.1984 -0.724725,-1.35041 -1.6105,-2.56002 -2.881238,-3.93463 -4.822756,-8.52488 -6.525714,-15.42847 -1.348498,-5.46666 -1.43021,-6.20124 -1.44395,-12.98082 -0.0077,-3.82312 0.09597,-7.53277 0.23049,-8.24367 0.311119,-1.6442 -0.233609,-1.97404 -3.974897,-2.40681 -3.894148,-0.45045 -9.39537,-1.84807 -9.790447,-2.48732 C 50.461822,212.15287 50.085288,212 49.740555,212 c -0.954445,0 -7.701867,-3.52245 -10.091295,-5.26809 -4.763309,-3.47994 -11.696302,-11.55745 -12.412616,-14.46174 -0.123128,-0.49922 -0.581829,-1.47842 -1.019337,-2.17599 -0.437507,-0.69758 -1.456635,-3.23758 -2.264728,-5.64445 -1.454792,-4.33302 -1.469853,-4.43026 -1.529346,-9.87391 l -0.06009,-5.49779 1.35632,-1.6579 c 1.99991,-2.4446 4.469989,-3.74456 7.110347,-3.74206 3.419461,0.003 5.949532,1.20749 7.914522,3.76715 1.092732,1.42342 1.225517,1.85864 1.465646,4.80376 0.338195,4.14785 0.527799,5.07741 1.766163,8.65886 2.74142,7.92839 11.034997,14.8333 19.192558,15.97897 4.242278,0.5958 10.604078,0.55369 14.287501,-0.0946 7.097579,-1.24914 13.632545,-6.51384 17.687228,-14.24919 1.163262,-2.21922 1.646196,-4.34288 2.017182,-8.8704 0.237119,-2.89381 0.471307,-3.88259 1.223609,-5.16629 1.815097,-3.09723 4.884971,-4.95345 8.207981,-4.96302 2.52448,-0.007 4.01294,0.51668 6.0151,2.11737 2.32502,1.8588 3.65424,4.1391 3.65563,6.2713 0.002,2.67439 1.21712,8.24335 2.25762,10.34473 0.50392,1.0177 0.91621,1.9229 0.91621,2.01157 0,0.0887 0.70915,1.17566 1.57588,2.41553 2.26707,3.24308 5.89467,6.34374 9.31332,7.96051 1.19264,0.56403 2.36578,1.1791 2.60698,1.36682 0.67224,0.5232 5.66195,1.24111 9.78714,1.40816 7.29682,0.29549 12.75152,-1.12538 17.77251,-4.62948 2.35861,-1.64606 5.51084,-4.4043 5.51084,-4.82207 0,-0.15376 0.61259,-1.20359 1.36132,-2.33297 0.74873,-1.12938 1.47309,-2.4503 1.60968,-2.93537 0.13659,-0.48507 0.37338,-1.19944 0.52619,-1.5875 0.84769,-2.15257 1.1422,-3.53071 1.47011,-6.87916 0.58763,-6.00072 1.24418,-7.21276 5.06436,-9.34913 2.52929,-1.41446 4.08986,-1.55856 7.17281,-0.66232 1.5143,0.44022 2.35612,0.97749 3.65627,2.33352 2.38671,2.4893 2.56897,3.27555 2.29571,9.9039 -0.19275,4.67569 -0.36898,5.96353 -1.06384,7.77443 -0.45806,1.19373 -1.11311,2.96418 -1.45567,3.93432 -0.34257,0.97014 -0.96031,2.24014 -1.37276,2.82222 -0.41245,0.58208 -1.13297,1.77271 -1.60115,2.64583 -0.92209,1.71963 -1.46246,2.48362 -3.93726,5.56656 -3.44781,4.29507 -6.55801,6.86753 -13.1966,10.915 -1.16163,0.70822 -3.76469,1.86289 -4.19969,1.86289 -0.2232,0 -0.71896,0.21344 -1.10168,0.47432 -0.38272,0.26088 -1.09273,0.58781 -1.5778,0.72651 -3.43118,0.98109 -6.38101,1.61587 -7.58472,1.63217 -0.77612,0.0105 -2.28424,0.22498 -3.35139,0.47659 -1.85127,0.43649 -1.93468,0.50458 -1.81823,1.48436 0.0671,0.56478 0.19864,4.36063 0.29225,8.43521 0.17157,7.46829 -0.0528,9.89481 -1.15071,12.44739 -0.27407,0.63717 -0.49831,1.54664 -0.49831,2.02104 0,0.85881 -1.40489,5.38855 -2.29627,7.40379 -2.03791,4.60732 -2.64851,5.6678 -5.28118,9.17223 -2.53432,3.3735 -5.89027,6.61644 -8.64454,8.35346 -1.26436,0.79739 -2.69572,1.7112 -3.18079,2.0307 -2.03174,1.33824 -5.89624,2.94911 -8.64306,3.60277 -5.51592,1.31262 -10.76029,1.56439 -16.756947,0.80445 z M 110.91037,253.0156 c 6.32363,-1.63881 12.90069,-8.94202 14.50361,-16.10488 0.26543,-1.18611 0.75039,-4.47565 1.07769,-7.3101 0.51944,-4.49838 0.53813,-5.75413 0.14706,-9.87778 -0.24641,-2.59833 -0.60809,-5.15306 -0.80373,-5.67717 -0.41791,-1.11962 -1.69192,-2.04329 -2.82958,-2.05148 -0.44339,-0.003 -1.44116,-0.39205 -2.21727,-0.86413 -0.77611,-0.47208 -2.13481,-1.25051 -3.01932,-1.72983 -3.65729,-1.98191 -6.33794,-4.03387 -9.57181,-7.32696 l -3.41891,-3.4815 -1.51998,1.65092 c -4.706079,5.11151 -7.550621,7.20566 -14.503539,10.67749 -2.48429,1.2405 -4.659816,2.5225 -4.834501,2.8489 -0.568009,1.06134 -1.135388,9.92017 -0.89214,13.92953 0.290837,4.79375 1.356919,10.38654 2.537514,13.3121 2.143366,5.31134 7.937428,10.49141 13.526852,12.09343 1.856314,0.53205 9.648674,0.47367 11.818054,-0.0885 z M -81.000743,186.59585 c -8.034339,-0.7305 -11.112504,-1.21728 -14.463889,-2.28734 -0.776111,-0.2478 -2.363611,-0.71526 -3.527778,-1.0388 -2.18146,-0.60626 -2.59248,-0.753 -4.86266,-1.73609 -0.73419,-0.31794 -1.47718,-0.57807 -1.65108,-0.57807 -0.58612,0 -5.0537,-2.19006 -8.35193,-4.09421 -7.2078,-4.16124 -12.36094,-8.15421 -17.27992,-13.38958 -2.10985,-2.24555 -3.98285,-4.35002 -4.16223,-4.67659 -0.17937,-0.32658 -1.06334,-1.46691 -1.96438,-2.53406 -2.34774,-2.78055 -3.4521,-4.60319 -6.37376,-10.51921 -2.45093,-4.96285 -3.47795,-8.23034 -5.9817,-19.03099 -0.45476,-1.96178 -0.45169,-14.77767 0.004,-16.83501 0.19403,-0.87591 0.53114,-2.34663 0.74915,-3.26826 0.218,-0.92163 0.54101,-2.46944 0.71778,-3.43958 0.17677,-0.97014 0.45824,-2.08139 0.62548,-2.46945 0.16724,-0.38805 0.64666,-1.816802 1.06539,-3.174996 0.70008,-2.270781 1.67808,-4.702511 2.52472,-6.277526 3.45262,-6.422913 4.01017,-7.357152 6.44805,-10.8044 2.67747,-3.786036 11.58284,-12.748707 15.03332,-15.130045 6.48324,-4.474395 9.0908,-6.037234 13.40555,-8.034603 1.06716,-0.494003 2.57528,-1.192016 3.35139,-1.55114 0.77611,-0.359124 2.36361,-0.926591 3.52778,-1.261038 1.16417,-0.334446 2.616909,-0.823983 3.228315,-1.08786 0.611407,-0.263876 1.3561,-0.479775 1.654875,-0.479775 0.298774,0 0.630975,-0.14198 0.738224,-0.315512 0.107248,-0.173532 0.791305,-0.404172 1.520125,-0.512533 3.203841,-0.476347 5.990537,-1.006027 6.969573,-1.324739 0.582083,-0.18949 3.710171,-0.572905 6.951306,-0.852035 4.985624,-0.429366 6.751213,-0.436257 11.467004,-0.04476 3.065717,0.254514 5.890755,0.626038 6.277861,0.825608 0.387106,0.199571 1.667472,0.458688 2.845258,0.575816 2.328978,0.231613 5.068318,0.888626 7.55996,1.813209 0.873125,0.323993 2.2225,0.740688 2.998611,0.925987 1.783242,0.425757 2.970496,0.867307 5.733581,2.132372 1.213191,0.555453 2.413569,1.009915 2.667507,1.009915 0.253938,0 0.80505,0.319875 1.224694,0.710833 0.419644,0.390957 1.124266,0.866828 1.565826,1.05749 0.922104,0.398158 1.74881,0.899381 3.336938,2.023152 0.617644,0.43705 1.222064,0.794636 1.343156,0.794636 0.344895,0 4.687689,3.068337 7.411632,5.23658 1.358195,1.081115 4.296206,3.797971 6.528915,6.037458 3.650192,3.661274 4.864064,5.151752 7.726596,9.487256 0.467475,0.708024 1.279797,1.922316 1.805161,2.698427 1.0845871,1.602243 3.8712729,6.876035 3.8712729,7.326369 0,0.163385 0.3440442,1.042415 0.7645426,1.953402 0.7345966,1.591463 2.4964961,7.536122 3.1048534,10.475792 0.1606144,0.77611 0.4615066,1.94668 0.6686493,2.60127 1.2187024,3.85123 1.33474698,15.87268 0.2047546,21.21123 -0.3080191,1.4552 -0.6388493,3.12208 -0.7351783,3.70416 -0.096329,0.58209 -0.3150255,1.37584 -0.4859922,1.76389 -0.1709667,0.38806 -0.5586244,1.71681 -0.8614616,2.95279 -0.3028372,1.23598 -0.7655767,2.7441 -1.02831,3.35139 -0.2627334,0.60728 -0.7545004,1.81853 -1.0928156,2.69165 -0.3383153,0.87313 -0.8641234,2.06375 -1.1684624,2.64584 -0.3043391,0.58208 -0.6736524,1.29646 -0.8206962,1.5875 -1.0451826,2.06871 -4.6884875,7.73716 -6.5755295,10.23055 -4.414643,5.83318 -11.717507,12.67176 -16.845188,15.77425 -0.388055,0.23479 -2.221633,1.38009 -4.074616,2.5451 -3.422208,2.15163 -4.936695,2.89769 -10.91844,5.37865 -4.191213,1.73833 -7.202231,2.72764 -11.465278,3.76707 -4.214718,1.02765 -18.015252,1.90547 -22.930556,1.45856 z m 9.946757,-18.70798 c 4.021284,-0.32733 5.481432,-0.59592 9.456021,-1.73938 0.582084,-0.16746 1.576402,-0.40996 2.209596,-0.53888 0.633195,-0.12893 2.606358,-0.85634 4.384808,-1.61646 1.77845,-0.76012 3.469565,-1.38204 3.758033,-1.38204 0.288468,0 0.775929,-0.24462 1.083248,-0.5436 0.307318,-0.29898 1.549395,-1.13242 2.76017,-1.85208 7.057295,-4.19475 11.944835,-8.91791 17.503964,-16.91528 0.706697,-1.01666 1.284904,-1.94465 1.284904,-2.06221 0,-0.11756 0.307704,-0.64588 0.683787,-1.17403 0.376083,-0.52816 1.03215,-1.98142 1.457928,-3.22946 0.425778,-1.24805 0.882803,-2.42792 1.01561,-2.62195 0.361553,-0.52822 1.315809,-3.87133 2.013931,-7.05555 0.927223,-4.22919 0.836664,-12.2324 -0.195599,-17.28611 -0.956221,-4.68143 -1.248248,-5.67298 -2.553799,-8.6712 -0.555911,-1.276651 -1.010747,-2.489843 -1.010747,-2.695977 0,-0.625477 -3.084908,-5.904443 -3.860708,-6.606532 -0.398972,-0.361064 -0.725403,-0.836407 -0.725403,-1.056317 0,-1.135469 -8.493237,-9.785032 -11.994444,-12.215214 -2.135888,-1.482515 -6.61463,-4.136083 -8.009302,-4.745356 -0.73662,-0.321798 -1.736185,-0.783646 -2.221254,-1.02633 -0.841287,-0.420902 -3.697455,-1.297604 -6.35,-1.949135 -0.679098,-0.166804 -2.152893,-0.565917 -3.275101,-0.886918 -4.525273,-1.294429 -19.456894,-1.405558 -22.699145,-0.168938 -0.55729,0.212555 -1.648255,0.524705 -2.424366,0.693666 -3.020558,0.657584 -7.827739,2.097131 -9.172222,2.746692 -0.776112,0.374963 -2.046112,0.976197 -2.822224,1.336075 -1.70133,0.788896 -6.32571,3.890772 -8.99583,6.03409 -8.15899,6.549261 -12.8443,13.513076 -16.68676,24.801664 -1.77052,5.20153 -2.31265,11.01218 -1.70176,18.23952 0.24269,2.87111 0.59001,5.37102 0.77183,5.55534 0.18182,0.18433 0.33058,0.6909 0.33058,1.12571 0,0.43481 0.15443,0.88602 0.34319,1.00267 0.18875,0.11666 0.52133,0.87367 0.73906,1.68225 1.46492,5.44032 5.54392,11.92031 11.44136,18.17601 2.81239,2.98325 3.36366,3.45648 8.31172,7.13517 2.83043,2.10431 6.219417,4.23333 6.738636,4.23333 0.17853,0 1.620104,0.635 3.203498,1.41111 1.583394,0.77611 3.066736,1.41111 3.296315,1.41111 0.22958,0 1.189711,0.22661 2.133624,0.50358 4.810639,1.41157 5.89086,1.62964 9.477316,1.91321 5.573655,0.44068 5.359009,0.4399 10.299535,0.0377 z m 350.030336,18.5619 c -0.0826,-0.0826 -2.13315,-0.32897 -4.55672,-0.54742 -4.10387,-0.36992 -5.1699,-0.56767 -7.93426,-1.47188 -0.58208,-0.1904 -1.91714,-0.57848 -2.96679,-0.86241 -1.04965,-0.28394 -2.39903,-0.7334 -2.99861,-0.99883 -0.59958,-0.26542 -2.28078,-0.96832 -3.73598,-1.56199 -3.53168,-1.44081 -11.15164,-5.38718 -12.52362,-6.48597 -0.19402,-0.15539 -1.78152,-1.31632 -3.52777,-2.57984 -5.21086,-3.77039 -6.94133,-5.23756 -9.27509,-7.86386 -1.22074,-1.37376 -2.80824,-3.11083 -3.52778,-3.86016 -0.71953,-0.74932 -1.86387,-2.11218 -2.54297,-3.02857 -0.67909,-0.91639 -1.83521,-2.41283 -2.56915,-3.32542 -0.73394,-0.91259 -1.42995,-2.05613 -1.54669,-2.5412 -0.11674,-0.48507 -0.42299,-1.12587 -0.68056,-1.424 -0.25757,-0.29813 -0.8081,-1.33 -1.22339,-2.29305 -0.41529,-0.96305 -1.11811,-2.54475 -1.56183,-3.51489 -1.013,-2.21482 -2.44933,-5.91381 -3.01365,-7.76111 -0.23709,-0.77611 -0.55819,-1.75091 -0.71356,-2.16622 -0.15538,-0.41531 -0.39175,-1.92344 -0.52529,-3.35139 -0.13354,-1.42796 -0.46237,-3.46307 -0.73073,-4.52248 -0.66764,-2.63568 -0.66671,-13.62591 0.001,-16.25593 0.26911,-1.05941 0.60103,-2.8787 0.73759,-4.04287 0.13657,-1.16417 0.45843,-2.91042 0.71525,-3.88056 0.77811,-2.939283 2.95788,-8.720935 3.5236,-9.346055 0.29231,-0.323 0.53148,-0.828942 0.53148,-1.124314 0,-0.617644 1.58691,-3.723352 2.32513,-4.550459 0.2734,-0.30632 0.49709,-0.802819 0.49709,-1.103332 0,-0.300513 0.23812,-0.744014 0.52917,-0.985557 0.29104,-0.241543 0.52916,-0.578113 0.52916,-0.747934 0,-0.384202 2.00748,-3.233511 4.56831,-6.48401 3.47501,-4.410897 10.06575,-10.667793 13.37761,-12.699999 0.3162,-0.194028 1.46247,-1.027465 2.54725,-1.852083 1.08478,-0.824618 2.08756,-1.499306 2.2284,-1.499306 0.14084,0 0.7764,-0.396875 1.41235,-0.881944 0.63596,-0.48507 1.26524,-0.881945 1.3984,-0.881945 0.13316,0 1.3088,-0.600144 2.61253,-1.333653 1.30374,-0.73351 3.64043,-1.859449 5.19265,-2.502088 1.55223,-0.642638 3.06556,-1.292308 3.36297,-1.44371 0.29741,-0.151403 1.09116,-0.386594 1.76389,-0.522647 0.67273,-0.136052 2.25502,-0.614662 3.5162,-1.063577 1.26118,-0.448915 3.56306,-1.075232 5.11528,-1.391815 1.55222,-0.316584 3.93347,-0.800253 5.29166,-1.074819 3.00458,-0.607392 9.44672,-1.251023 12.52156,-1.251023 2.42917,0 7.09641,0.506075 10.23261,1.109537 1.06715,0.20534 2.78182,0.503353 3.81037,0.662251 2.78077,0.429596 5.26484,1.04937 7.8313,1.953903 1.26118,0.444496 2.84121,0.918995 3.51118,1.054441 1.46258,0.295688 8.27769,3.115996 9.53272,3.944938 0.48995,0.323611 1.57353,0.953281 2.40795,1.399266 6.80791,3.638709 17.31801,12.06014 20.02841,16.04816 0.56773,0.835352 1.28727,1.757337 1.59898,2.048856 1.48781,1.391438 7.72354,10.705182 7.72354,11.535942 0,0.125084 0.21515,0.47805 0.47811,0.78437 0.26296,0.30632 0.76348,1.43007 1.11226,2.497222 0.34879,1.067153 0.93369,2.62665 1.29979,3.465549 0.3661,0.838899 0.76107,2.029524 0.87771,2.645833 0.11663,0.616309 0.37625,1.438062 0.57692,1.826122 0.20067,0.38805 0.48491,1.26118 0.63166,1.94027 0.14674,0.6791 0.62213,2.66348 1.0564,4.40973 0.71121,2.85979 0.79229,4.0856 0.81666,12.34722 0.0252,8.53545 -0.0296,9.38039 -0.78917,12.17083 -1.53315,5.63233 -1.68271,6.09512 -3.11428,9.63645 -0.45617,1.12845 -0.8294,2.19653 -0.8294,2.37351 0,0.3652 -2.25215,5.09927 -2.91561,6.12867 -3.99132,6.19277 -8.08831,11.64223 -10.49847,13.96415 -5.30198,5.10785 -9.9016,9.04632 -11.28036,9.65892 -0.48507,0.21552 -2.12361,1.21739 -3.64121,2.22638 -1.51759,1.00899 -3.42259,2.17109 -4.23333,2.58245 -0.81074,0.41136 -1.95032,1.04342 -2.53241,1.40458 -0.58208,0.36116 -1.27246,0.66826 -1.53418,0.68244 -0.26172,0.0142 -1.05547,0.28108 -1.76389,0.5931 -5.58996,2.46213 -5.8535,2.56533 -7.93867,3.10844 -1.10049,0.28665 -2.19162,0.63905 -2.42473,0.78312 -0.5561,0.34368 -2.95214,0.79079 -6.44686,1.20299 -1.55222,0.18308 -3.68482,0.49219 -4.7391,0.68689 -1.83163,0.33828 -16.67682,0.51634 -16.98937,0.20379 z m 12.20347,-18.54818 c 3.7494,-0.30705 5.67914,-0.66294 9.525,-1.75661 0.58208,-0.16553 1.61396,-0.4117 2.29306,-0.54704 0.67909,-0.13534 1.39347,-0.35997 1.5875,-0.49917 0.19402,-0.1392 1.70215,-0.79255 3.35138,-1.45189 2.73949,-1.0952 4.55451,-2.0858 9.33107,-5.09271 2.15577,-1.35709 8.64547,-6.86432 9.86304,-8.36989 3.05086,-3.77249 4.79568,-6.21537 5.86443,-8.21067 0.31179,-0.58208 0.92513,-1.67999 1.36298,-2.43979 0.43785,-0.75981 1.12261,-2.26793 1.52171,-3.35139 0.39909,-1.08346 0.87534,-2.1595 1.05833,-2.39121 0.34346,-0.4349 1.1611,-3.76399 1.75936,-7.16344 0.58539,-3.32628 0.74224,-11.25123 0.2758,-13.93472 -0.91969,-5.29115 -1.69101,-8.90518 -2.03889,-9.5533 -0.47235,-0.88004 -1.48116,-3.206468 -1.48116,-3.415745 0,-0.08933 -0.635,-1.317632 -1.41111,-2.729568 -0.77611,-1.411935 -1.41111,-2.721683 -1.41111,-2.910549 0,-0.704753 -5.89047,-7.832969 -8.45355,-10.229875 -2.84091,-2.656713 -7.13459,-6.188508 -8.30006,-6.827263 -8.85583,-4.853589 -8.01374,-4.520429 -17.81861,-7.049632 -2.99932,-0.773685 -4.11122,-0.867497 -10.58433,-0.893005 -7.63978,-0.03011 -9.66798,0.118272 -12.52262,0.916121 -0.97014,0.271146 -2.39889,0.658133 -3.175,0.859971 -4.42184,1.149956 -8.9441,2.800593 -10.75972,3.927328 -0.29104,0.180614 -1.24354,0.710128 -2.11667,1.176698 -6.08164,3.249836 -14.17518,11.135255 -17.12671,16.686307 -0.48689,0.915718 -1.0967,1.91052 -1.35514,2.21067 -0.70494,0.818723 -3.63417,7.093872 -3.87762,8.306842 -0.11682,0.58208 -0.54361,2.16958 -0.94842,3.52778 -1.1761,3.94601 -1.53835,6.73126 -1.53705,11.81805 0.001,5.38472 0.3866,9.28329 1.04576,10.58333 0.48497,0.95651 1.57418,4.43933 1.57418,5.03356 0,0.33577 0.90753,2.41789 2.41898,5.54978 1.84028,3.81327 7.25565,10.90598 10.6338,13.92748 4.21812,3.77278 11.02032,8.42542 13.42887,9.1852 0.47225,0.14897 1.96988,0.78521 3.32807,1.41387 1.3582,0.62866 3.10445,1.30634 3.88056,1.50594 0.77611,0.19961 2.28424,0.63165 3.35139,0.96008 1.64524,0.50635 8.56368,1.37606 12.17083,1.52998 0.58209,0.0248 2.96334,-0.11084 5.29167,-0.30152 z m 174.44861,172.1637 c 2.42535,-0.17578 6.94973,-0.49233 10.05417,-0.70344 3.10445,-0.21111 6.59695,-0.60452 7.76111,-0.87425 2.29225,-0.53109 5.66594,-1.11002 8.46667,-1.4529 0.97014,-0.11877 2.24014,-0.35036 2.82222,-0.51466 4.19973,-1.18542 7.93274,-2.37035 11.1125,-3.52732 2.03729,-0.74128 4.25979,-1.49759 4.93889,-1.68069 1.63082,-0.4397 7.68615,-3.17154 8.8739,-4.00342 0.51503,-0.36071 1.05055,-0.65584 1.19005,-0.65584 0.1395,0 1.43032,-0.71438 2.86847,-1.5875 1.43816,-0.87313 2.68783,-1.5875 2.77705,-1.5875 0.27654,0 7.28533,-5.14681 9.45257,-6.94136 5.54521,-4.59164 10.29867,-10.29813 13.37625,-16.05806 0.53209,-0.99587 1.24265,-2.22121 1.579,-2.72298 2.12057,-3.16347 3.26791,-13.67972 2.03445,-18.64724 -1.7547,-7.06674 -6.75896,-12.42986 -13.92952,-14.92843 -3.33853,-1.16331 -8.87287,-1.31803 -13.77921,-0.38522 -4.9837,0.94752 -7.22609,2.20853 -13.73383,7.72325 -1.65123,1.39926 -3.71661,3.11374 -4.58973,3.80995 -0.87313,0.69621 -2.30137,1.83372 -3.17387,2.52782 -2.11709,1.68417 -4.89065,3.44088 -6.82101,4.32026 -1.94049,0.884 -5.16227,1.30555 -6.10832,0.79924 -0.38047,-0.20362 -0.86513,-0.26224 -1.07701,-0.13025 -0.21189,0.13198 -1.24794,1.90684 -2.30233,3.94413 -2.5054,4.84091 -2.29786,4.47532 -5.27558,9.29271 -1.42019,2.29759 -2.7606,4.49053 -2.97869,4.87319 -0.21809,0.38267 -0.8134,1.13089 -1.32292,1.66271 -0.50951,0.53182 -0.92639,1.09377 -0.92639,1.24877 0,1.13955 -12.0364,14.15712 -15.3723,16.62541 -0.76155,0.56348 -2.41652,1.91929 -3.6777,3.0129 -1.26118,1.09362 -3.4043,2.7446 -4.7625,3.66884 -1.35819,0.92425 -3.06521,2.21708 -3.79337,2.87296 -0.72817,0.65588 -1.49282,1.19251 -1.69924,1.19251 -0.20641,0 -0.88064,0.37679 -1.49829,0.83732 -0.61764,0.46052 -1.91374,1.27161 -2.88022,1.80242 -0.96648,0.53081 -2.13883,1.26527 -2.60521,1.63213 -0.46639,0.36686 -0.98848,0.66702 -1.1602,0.66702 -0.17171,0 -0.9409,0.39687 -1.7093,0.88194 -0.7684,0.48507 -1.63837,0.88195 -1.93327,0.88195 -0.2949,0 -0.53618,0.23812 -0.53618,0.52916 0,0.31203 0.32571,0.53132 0.79375,0.5344 0.43657,0.003 3.09563,0.17258 5.90903,0.37711 14.71849,1.07002 17.27597,1.14392 23.63611,0.68296 z m 32.58919,-91.26958 c 0.79963,-0.71736 2.5404,-2.46285 3.86839,-3.87887 2.0312,-2.16585 2.31122,-2.60723 1.76389,-2.7803 -1.59702,-0.50497 -6.84738,-2.41783 -8.87437,-3.23318 -1.35635,-0.54558 -2.35345,-0.76868 -2.55129,-0.57083 -0.19785,0.19784 0.15103,1.28546 0.89269,2.78292 0.66961,1.35199 1.55291,3.92659 1.96289,5.72135 0.40998,1.79476 0.91159,3.26319 1.11468,3.26319 0.20309,0 1.0235,-0.58693 1.82312,-1.30428 z"
       id="path1" /></g></svg>
