<?xml version="1.0" encoding="UTF-8" standalone="no"?>
<!-- Created with Inkscape (http://www.inkscape.org/) -->

<svg
   width="238.55563mm"
   height="225.66866mm"
   viewBox="0 0 238.55563 225.66866"
   version="1.1"
   id="svg1"
   xml:space="preserve"
   inkscape:export-filename="polyhontongueout.svg"
   inkscape:export-xdpi="96"
   inkscape:export-ydpi="96"
   xmlns:inkscape="http://www.inkscape.org/namespaces/inkscape"
   xmlns:sodipodi="http://sodipodi.sourceforge.net/DTD/sodipodi-0.dtd"
   xmlns="http://www.w3.org/2000/svg"
   xmlns:svg="http://www.w3.org/2000/svg"><sodipodi:namedview
     id="namedview1"
     pagecolor="#505050"
     bordercolor="#eeeeee"
     borderopacity="1"
     inkscape:showpageshadow="0"
     inkscape:pageopacity="0"
     inkscape:pagecheckerboard="0"
     inkscape:deskcolor="#505050"
     inkscape:document-units="mm" /><defs
     id="defs1" /><g
     inkscape:label="Capa 1"
     inkscape:groupmode="layer"
     id="layer1"
     transform="translate(363.02093,-328.83484)"><path
       style="fill:#000000"
       d="m -298.75257,554.03797 c -0.23996,-0.24254 -0.87215,-0.73863 -1.40486,-1.10243 -0.53272,-0.36381 -1.11029,-0.78682 -1.2835,-0.94004 -0.17321,-0.15322 -1.9818,-1.44702 -4.01909,-2.87512 -2.03729,-1.42809 -4.18042,-2.94086 -4.7625,-3.36171 -0.58208,-0.42084 -3.14193,-2.24044 -5.68854,-4.04355 -2.54661,-1.80311 -4.91632,-3.5285 -5.26601,-3.83419 -0.34968,-0.3057 -0.71419,-0.55581 -0.81,-0.55581 -0.0958,0 -0.40502,-0.21055 -0.68712,-0.4679 -0.2821,-0.25734 -1.52988,-1.14809 -2.77283,-1.97944 -1.24296,-0.83135 -2.5179,-1.75189 -2.83321,-2.04564 -0.31531,-0.29376 -0.6463,-0.5341 -0.73554,-0.5341 -0.0892,0 -0.31915,-0.14883 -0.51091,-0.33073 -0.56799,-0.53878 -4.3612,-3.2295 -6.8837,-4.88296 -0.57884,-0.37942 -1.21243,-0.84984 -1.40796,-1.04538 -0.19554,-0.19553 -0.44363,-0.35552 -0.55131,-0.35552 -0.10769,0 -0.42661,-0.21412 -0.70871,-0.47582 -0.43387,-0.40251 -2.36349,-1.77691 -7.20944,-5.13504 -0.48164,-0.33377 -1.02476,-0.74175 -1.20694,-0.90664 -0.18218,-0.16489 -2.16937,-1.60144 -4.41597,-3.19235 -10.39529,-7.36129 -10.6097,-7.52558 -10.98097,-8.41415 -0.32471,-0.77715 -0.13881,-3.09126 1.74591,-21.73382 1.16012,-11.47523 2.76521,-27.41249 3.56687,-35.41613 0.80277,-8.01475 1.60412,-14.83642 1.78379,-15.18501 0.38109,-0.73937 1.59804,-1.53717 3.63613,-2.38373 1.47358,-0.61208 2.66944,-1.15016 5.87031,-2.64138 0.9731,-0.45334 1.83969,-0.82426 1.92576,-0.82426 0.0861,0 1.0163,-0.40746 2.06719,-0.90547 1.05089,-0.49801 2.23324,-0.98594 2.62745,-1.08429 0.39422,-0.0983 0.85528,-0.34574 1.02459,-0.54974 0.1693,-0.204 0.42409,-0.37092 0.56618,-0.37092 0.14209,0 0.63352,-0.16895 1.09208,-0.37545 0.45855,-0.2065 1.64485,-0.74188 2.63621,-1.18973 0.99136,-0.44786 2.06292,-0.8802 2.38125,-0.96077 0.31832,-0.0806 0.85957,-0.35911 1.20277,-0.61898 0.60185,-0.45572 0.61238,-0.52439 0.29665,-1.93521 -0.65398,-2.92229 -0.11089,-6.88146 1.12371,-8.1919 0.18529,-0.19667 0.81313,-1.07116 1.39519,-1.94329 1.76158,-2.63948 3.27248,-4.08876 5.15941,-4.949 0.94589,-0.43122 2.07698,-0.94914 2.51354,-1.15094 0.43657,-0.2018 1.58133,-0.60791 2.54392,-0.90248 l 1.75016,-0.53558 -0.62568,-1.23588 c -0.34413,-0.67974 -0.62941,-1.42407 -0.63396,-1.65406 -0.005,-0.23 -0.30112,-1.0135 -0.65904,-1.7411 -0.35792,-0.7276 -0.65185,-1.64331 -0.65318,-2.03491 -0.001,-0.39159 -0.11601,-0.78219 -0.25484,-0.86799 -0.42123,-0.26033 -1.64218,0.16153 -1.50466,0.5199 0.13116,0.34179 -1.6361,0.87021 -6.75657,2.02027 -2.86136,0.64267 -3.83332,0.48604 -4.6419,-0.74801 -0.39203,-0.59831 -0.37475,-0.67424 0.3179,-1.39722 0.85009,-0.8873 2.44391,-1.56271 5.95848,-2.52504 1.38245,-0.37852 2.77774,-0.81808 3.10064,-0.97678 0.32291,-0.15871 1.03729,-0.36114 1.5875,-0.44984 0.96751,-0.15598 1.00329,-0.20032 1.0882,-1.34875 0.0483,-0.6531 0.009,-2.0395 -0.0864,-3.08087 l -0.1742,-1.89341 -1.76569,-0.16092 c -0.97113,-0.0885 -3.61115,-0.21932 -5.86673,-0.29071 -2.25557,-0.0714 -4.49659,-0.2036 -4.98004,-0.29381 -0.97149,-0.18127 -1.36996,-0.8559 -1.36996,-2.31943 0,-1.45444 0.3998,-1.52734 7.86307,-1.43372 l 6.64303,0.0833 0.16704,-1.04611 c 0.0919,-0.57537 0.39772,-1.41938 0.67967,-1.87559 1.01158,-1.63677 -0.2092,-2.70753 -5.3846,-4.72289 -1.62621,-0.63327 -3.80411,-1.48028 -4.83977,-1.88224 -1.67349,-0.64953 -1.93452,-0.84756 -2.34573,-1.77959 -0.55265,-1.25261 -0.27729,-2.14643 0.8145,-2.64389 0.5845,-0.26631 0.95202,-0.22017 2.319,0.29115 0.89343,0.33419 2.59149,0.95204 3.77346,1.37299 1.18198,0.42096 3.00016,1.24767 4.0404,1.83714 3.28295,1.86032 3.06988,1.95564 5.1308,-2.29519 0.97594,-2.01297 2.37574,-4.43385 3.11067,-5.37974 0.73493,-0.94588 1.7439,-2.26484 2.24216,-2.93102 1.00996,-1.35033 3.85099,-3.94095 5.70932,-5.20609 1.66064,-1.13055 2.88532,-2.58087 2.88532,-3.41692 0,-0.37823 0.11089,-1.11823 0.24643,-1.64443 0.13553,-0.52621 0.38179,-1.63952 0.54722,-2.47402 0.37573,-1.89523 1.44746,-4.66621 1.95816,-5.06284 0.21177,-0.16448 0.52397,-0.82989 0.69376,-1.4787 0.29114,-1.11254 1.48855,-3.55729 3.6141,-7.37889 1.21889,-2.19148 3.08831,-4.17345 4.54369,-4.81723 2.34815,-1.0387 8.53314,-0.40586 10.18286,1.04191 0.268,0.23518 1.23729,0.90386 2.15399,1.48594 3.77854,2.39931 4.89852,3.27416 7.83219,6.11799 1.69895,1.64692 3.39241,3.06025 3.78484,3.15874 0.39061,0.098 1.86666,0.12269 3.28012,0.0548 4.10952,-0.19743 13.20376,0.57085 16.46055,1.39058 0.50933,0.1282 1.75488,0.36409 2.7679,0.5242 1.01302,0.16011 1.96552,0.3875 2.11667,0.50532 0.15114,0.11781 0.91249,0.28599 1.69189,0.37372 0.77939,0.0877 1.55329,0.27204 1.71979,0.40958 0.16649,0.13754 1.07662,0.4448 2.02251,0.6828 0.94588,0.238 2.46927,0.78443 3.38531,1.21428 0.91604,0.42986 1.72768,0.78156 1.80363,0.78156 0.076,0 1.27703,0.5503 2.66905,1.22289 2.51208,1.21379 2.53764,1.2197 3.43086,0.79375 0.49496,-0.23603 1.07096,-0.42914 1.27999,-0.42914 0.20903,0 1.00866,-0.28555 1.77696,-0.63456 3.36417,-1.52819 6.00626,-2.49874 9.20211,-3.3803 1.57446,-0.43431 4.73219,-0.76548 8.59896,-0.90182 3.70417,-0.1306 3.70417,-0.1306 5.29167,0.75155 1.37112,0.76192 1.69387,1.09688 2.36793,2.4575 0.42924,0.86643 0.86648,2.23018 0.97164,3.03054 0.10517,0.80037 0.32414,2.40771 0.48661,3.57188 0.43633,3.12645 0.0885,9.73855 -0.9557,18.168 l -0.41515,3.35133 0.94808,2.4695 c 1.66729,4.34285 2.58334,8.40688 2.74153,12.16276 l 0.14082,3.34325 3.07483,-0.0283 c 1.69115,-0.0155 3.62562,0.0627 4.29881,0.17377 1.11522,0.18408 1.23665,0.27745 1.36655,1.05064 0.0784,0.46673 0.22106,1.04677 0.31699,1.28897 0.12983,0.32781 -0.11801,0.60692 -0.96968,1.09197 -1.08321,0.61692 -1.3094,0.64452 -4.25028,0.51863 l -3.10619,-0.13298 0.37276,1.15767 c 0.20502,0.63672 0.58555,1.81252 0.84562,2.61288 0.50813,1.5638 3.9187,7.29405 5.11798,8.59896 0.40123,0.43656 1.29809,1.50812 1.99303,2.38125 0.69493,0.87312 1.92128,2.33234 2.72521,3.24271 0.80392,0.91036 1.66983,2.10099 1.92423,2.64583 0.25439,0.54484 1.16726,1.91683 2.02859,3.04886 1.41341,1.85761 1.91442,2.6576 3.07837,4.91539 2.93802,5.69909 2.89062,5.56531 5.48776,15.4896 1.43538,5.48495 2.01733,9.7631 1.94707,14.31386 -0.0714,4.62465 -0.27212,6.2893 -1.10066,9.12812 -1.07884,3.69639 -1.08065,3.59605 0.0719,3.97642 0.67788,0.22372 1.77467,0.27676 3.3992,0.16439 3.16095,-0.21864 5.32347,-0.87881 6.63174,-2.02451 0.29104,-0.25488 0.97615,-0.54315 1.52245,-0.64059 0.65769,-0.11732 1.18291,-0.43366 1.55453,-0.9363 0.30868,-0.41752 1.33129,-1.3943 2.27246,-2.17062 0.94116,-0.77632 2.30254,-2.16209 3.02527,-3.07948 0.72273,-0.9174 1.51533,-1.74126 1.76134,-1.83081 0.24601,-0.0896 1.232,-0.88677 2.19109,-1.7716 1.73797,-1.6034 3.18297,-2.35283 6.1937,-3.21229 1.64596,-0.46987 5.95443,-0.11117 7.63474,0.63562 2.87576,1.27809 4.88439,4.46553 5.73857,9.10633 0.23601,1.2823 0.19261,1.92936 -0.27377,4.08197 -0.30483,1.40697 -0.83836,3.10249 -1.18562,3.76782 -0.34726,0.66533 -0.82236,1.75965 -1.05578,2.43181 -0.23342,0.67216 -0.89676,1.73377 -1.47408,2.35913 -0.57733,0.62535 -1.04969,1.21625 -1.04969,1.3131 0,0.0968 -1.45851,1.52493 -3.24114,3.17353 -2.22379,2.05658 -3.69792,3.1998 -4.69636,3.64211 -0.80036,0.35456 -1.51474,0.73986 -1.5875,0.85624 -0.27946,0.44698 -5.6953,2.92723 -6.72356,3.07914 -0.59491,0.0879 -1.91509,0.39684 -2.93373,0.68655 -3.99528,1.13631 -4.49958,1.26288 -5.03183,1.26288 -0.30298,0 -0.68069,0.12981 -0.83936,0.28847 -0.17086,0.17086 -1.99934,0.34607 -4.48468,0.42974 -3.78744,0.1275 -4.36031,0.0869 -5.88075,-0.41656 -0.9265,-0.30681 -2.47431,-0.63524 -3.43959,-0.72985 -0.96527,-0.0946 -1.8741,-0.26299 -2.01963,-0.37419 -0.21545,-0.16464 -2.37601,-0.83647 -6.5529,-2.03764 -0.32902,-0.0946 -1.23021,0.60675 -3.04271,2.36807 -3.66162,3.55824 -8.18602,6.35853 -12.57167,7.78099 -1.14334,0.37083 -1.56832,0.64656 -1.68233,1.09149 -0.0839,0.32742 -0.34922,0.59531 -0.5896,0.59531 -0.24038,0 -1.62645,0.41552 -3.08017,0.92337 -1.45371,0.50786 -3.01246,0.92458 -3.46388,0.92604 -0.45142,10e-4 -1.99923,0.29021 -3.43958,0.64164 -3.06193,0.74708 -9.10017,1.09888 -11.61466,0.67668 -3.15839,-0.53031 -5.42325,-0.62453 -5.43179,-0.22596 -0.004,0.20104 -0.17337,1.97287 -0.37569,3.9374 -0.20233,1.96453 -0.62191,6.13172 -0.93241,9.26041 -0.3105,3.1287 -0.69294,6.01906 -0.84987,6.42301 -0.35863,0.92315 -1.35049,1.63458 -3.45829,2.48051 -1.96198,0.78742 -4.30344,1.82904 -5.22382,2.32387 -0.3638,0.19559 -1.85208,0.86028 -3.30729,1.47708 -1.45521,0.6168 -3.50353,1.52296 -4.55183,2.0137 -1.0483,0.49074 -1.97442,0.89225 -2.05805,0.89225 -0.0836,0 -1.01187,0.40302 -2.06276,0.89561 -3.29919,1.54645 -5.51463,2.54397 -5.64999,2.54397 -0.11827,0 -1.90115,0.79594 -4.72737,2.11045 -0.58209,0.27073 -1.47506,0.6709 -1.98438,0.88927 -0.50932,0.21836 -1.73802,0.76385 -2.73044,1.21219 -0.99242,0.44835 -1.8553,0.81518 -1.91752,0.81518 -0.0622,0 -0.91712,0.37046 -1.89977,0.82325 -2.07164,0.95457 -2.82077,1.29401 -6.94602,3.14726 -1.67349,0.75181 -3.63802,1.64007 -4.36562,1.97391 -0.72761,0.33384 -1.62058,0.6953 -1.98438,0.80325 -0.3638,0.10794 -0.78525,0.29455 -0.93656,0.41469 -0.1513,0.12013 -1.69912,0.83123 -3.43958,1.58021 -3.84977,1.65669 -4.17718,1.78658 -4.39348,1.74292 -0.0939,-0.0189 -0.39152,0.15982 -0.66146,0.39727 -0.26994,0.23745 -0.78845,0.52072 -1.15225,0.62949 -0.36381,0.10877 -1.1963,0.48004 -1.84998,0.82505 -0.65369,0.345 -1.26363,0.62728 -1.35543,0.62728 -0.0918,0 -0.74759,0.26287 -1.45731,0.58415 -0.70973,0.32128 -1.34994,0.59929 -1.4227,0.61779 -0.0728,0.0185 -0.66807,0.2888 -1.32292,0.60067 -0.65484,0.31186 -1.33945,0.56963 -1.52135,0.57283 -0.1819,0.003 -0.33073,0.12487 -0.33073,0.27039 0,0.42595 -1.41514,0.26099 -1.89151,-0.22048 z m 6.32687,-7.96473 c 0.25269,-0.13625 1.11428,-0.53924 1.91464,-0.89553 0.80036,-0.3563 2.25138,-1.01873 3.22447,-1.47208 0.9731,-0.45334 1.84905,-0.82426 1.94655,-0.82426 0.0975,0 0.90868,-0.34635 1.80261,-0.76967 2.77194,-1.31264 5.75969,-2.66991 5.87728,-2.66991 0.0617,0 0.88649,-0.35719 1.83276,-0.79375 0.94627,-0.43657 2.49472,-1.15094 3.441,-1.5875 0.94627,-0.43657 1.78521,-0.79375 1.86431,-0.79375 0.0791,0 1.0339,-0.41672 2.12177,-0.92605 1.08787,-0.50932 2.03225,-0.92604 2.09863,-0.92604 0.16454,0 4.01335,-1.76379 5.15937,-2.36438 0.50932,-0.26692 1.2237,-0.57579 1.5875,-0.68638 0.3638,-0.11059 1.65077,-0.66003 2.85994,-1.22099 1.20916,-0.56095 2.25846,-1.01991 2.33177,-1.01991 0.0733,0 0.92947,-0.37352 1.90257,-0.83004 0.97309,-0.45653 2.36458,-1.09715 3.09218,-1.42362 0.7276,-0.32646 1.79917,-0.81163 2.38125,-1.07814 0.58208,-0.26652 1.11786,-0.49509 1.19062,-0.50794 0.0728,-0.0129 0.67221,-0.27655 1.3321,-0.58601 0.65989,-0.30946 1.5231,-0.6438 1.91823,-0.74297 0.46476,-0.11665 0.71842,-0.35703 0.71842,-0.6808 0,-0.47229 -0.27199,-0.50102 -4.82864,-0.51002 -2.65576,-0.005 -13.83222,-0.0774 -24.83659,-0.16031 l -20.00795,-0.15076 -0.1645,1.15249 c -0.14628,1.02478 -2.28523,22.12958 -2.28523,22.5481 0,0.25374 1.00377,0.20122 1.52494,-0.0798 z m -6.06849,-12.4451 c 0.62975,-6.29699 1.04646,-11.54069 0.92604,-11.65267 -0.12042,-0.11198 -4.56473,-1.05623 -9.87624,-2.09834 -5.31151,-1.0421 -10.78839,-2.13189 -12.17084,-2.42175 -1.38245,-0.28986 -3.16838,-0.64549 -3.96875,-0.79029 -1.65571,-0.29953 -7.09908,-1.36585 -10.05416,-1.96954 -7.55449,-1.54329 -12.33167,-2.43389 -12.50157,-2.33063 -0.35742,0.21722 -0.2078,0.88312 0.19844,0.88312 0.21828,0 0.39688,0.11104 0.39688,0.24675 0,0.13571 0.21713,0.31567 0.48252,0.3999 0.26539,0.0842 0.72122,0.37553 1.01297,0.64733 0.29174,0.2718 0.99734,0.80484 1.568,1.18453 0.57065,0.37969 1.58964,1.07868 2.26441,1.55331 0.67477,0.47463 1.56774,1.1 1.98437,1.3897 0.41664,0.2897 1.05396,0.79572 1.41627,1.12448 0.36232,0.32876 0.79888,0.59775 0.97014,0.59775 0.17126,0 0.35107,0.10253 0.39958,0.22785 0.0834,0.2154 2.79739,2.15835 5.11528,3.66201 0.91614,0.59432 1.71418,1.18537 2.94852,2.18378 0.16648,0.13466 2.19054,1.57586 4.49792,3.20266 2.30737,1.62681 4.25476,3.03288 4.32752,3.12462 0.0728,0.0917 0.33632,0.28585 0.5857,0.43137 0.86096,0.5024 8.66736,6.03923 9.15414,6.49273 0.2685,0.25015 0.95508,0.76025 1.52573,1.13357 1.55414,1.01671 5.70842,3.89492 6.45264,4.47059 0.55197,0.42696 0.69475,0.44708 0.92604,0.13052 0.1504,-0.20585 0.7887,-5.52635 1.41845,-11.82335 z m 66.98522,-17.07649 c 0,-0.19731 -0.13886,-0.69392 -0.30856,-1.10358 -0.16971,-0.40965 -0.32453,-0.80436 -0.34405,-0.87712 -0.0195,-0.0728 -0.29739,-0.6913 -0.61748,-1.37454 -0.3201,-0.68324 -0.5825,-1.33809 -0.58311,-1.45521 -6e-4,-0.11713 -0.29087,-0.78407 -0.64502,-1.48211 -0.35416,-0.69803 -0.78365,-1.71007 -0.95442,-2.24896 -0.17078,-0.53889 -0.47607,-1.24387 -0.67843,-1.56663 -0.20236,-0.32275 -0.62165,-1.27525 -0.93175,-2.11666 -0.3101,-0.84142 -0.65717,-1.64921 -0.77126,-1.79509 -0.11409,-0.14588 -0.46034,-0.91979 -0.76944,-1.71979 -0.3091,-0.8 -0.79153,-1.9308 -1.07206,-2.51288 -0.28054,-0.58209 -0.9407,-2.07037 -1.46703,-3.30729 -0.52634,-1.23693 -1.24441,-2.87729 -1.59573,-3.64526 -0.35131,-0.76796 -0.63875,-1.46434 -0.63875,-1.54751 0,-0.0832 -0.16971,-0.5264 -0.37713,-0.98496 -1.11169,-2.45767 -1.73954,-3.90497 -1.73954,-4.00995 0,-0.0648 -0.37007,-0.92448 -0.82237,-1.91039 -0.45231,-0.9859 -1.05319,-2.38787 -1.33528,-3.11547 -0.2821,-0.72761 -0.7583,-1.85494 -1.05823,-2.5052 -0.57108,-1.2381 -1.08214,-2.42936 -1.13866,-2.65418 -0.0183,-0.0728 -0.22071,-0.48948 -0.44981,-0.92604 -0.22911,-0.43656 -0.55893,-1.23466 -0.73295,-1.77356 -0.17402,-0.53889 -0.60616,-1.55092 -0.96031,-2.24895 -0.35416,-0.69804 -0.64442,-1.37023 -0.64503,-1.49376 -0.003,-0.62704 -0.90908,-2.02436 -1.31255,-2.02436 -0.29382,0 -1.38794,1.382 -3.05953,3.86453 -1.43117,2.1255 -2.74098,4.00338 -2.91068,4.17308 -0.1697,0.1697 -0.64261,0.84168 -1.05092,1.49328 -0.4083,0.65161 -0.81386,1.24427 -0.90125,1.31703 -0.0874,0.0728 -0.99232,1.37901 -2.01097,2.90278 -1.75777,2.62942 -3.2654,4.78357 -3.83989,5.48657 -0.14363,0.17576 -0.26115,0.38994 -0.26115,0.47595 0,0.17819 -2.09083,3.25204 -2.55377,3.75445 -0.16765,0.18194 -0.58206,0.78044 -0.92092,1.33 -0.33886,0.54957 -0.76036,1.1778 -0.93667,1.39608 -0.33051,0.40919 -3.35947,4.83658 -5.06834,7.40834 -0.53183,0.80036 -1.1763,1.64776 -1.43217,1.88311 -0.25587,0.23535 -0.46521,0.55427 -0.46521,0.70871 0,0.15444 -0.14883,0.43813 -0.33073,0.63042 -0.67138,0.70975 -1.78594,2.30668 -1.78594,2.55889 0,0.1431 -0.0921,0.29987 -0.20463,0.34838 -0.11254,0.0485 -1.25463,1.66577 -2.53798,3.59392 -1.28334,1.92815 -2.44142,3.50573 -2.57349,3.50573 -0.13208,0 -0.24015,0.16073 -0.24015,0.35718 0,0.19645 -0.35719,0.85026 -0.79375,1.45292 -0.6539,0.90268 -1.02245,1.86615 -0.7276,1.90214 0.0364,0.004 11.85333,0.0773 26.25989,0.1619 14.40657,0.0846 26.21307,0.17026 26.23667,0.19036 0.0236,0.0201 0.94634,-0.003 2.05052,-0.0505 1.47052,-0.0638 2.00761,-0.18303 2.00761,-0.4458 z m -67.99792,-1.65995 c 0,-0.26015 -0.42774,-1.48054 -0.95054,-2.71198 -1.51894,-3.57785 -3.02492,-7.14996 -3.67685,-8.72127 -0.68152,-1.64265 -1.55899,-3.65317 -2.194,-5.02708 -0.2354,-0.50932 -0.44933,-1.0451 -0.4754,-1.19063 -0.041,-0.22877 -2.30476,-5.48074 -3.44745,-7.99808 -0.2133,-0.46988 -0.54805,-1.30332 -0.74389,-1.85208 -0.3059,-0.85715 -1.14499,-2.81489 -2.01525,-4.70192 -0.2171,-0.47076 -0.79925,-1.89939 -0.91642,-2.24896 -0.10109,-0.30161 -0.64449,-1.54568 -1.27325,-2.91499 -0.36867,-0.80288 -0.9268,-2.11051 -1.24029,-2.90584 -0.31349,-0.79533 -0.85845,-2.07672 -1.21103,-2.84753 -0.35258,-0.77082 -0.64105,-1.44295 -0.64105,-1.49362 0,-0.0507 -0.20113,-0.55317 -0.44695,-1.11664 -0.24582,-0.56348 -0.46141,-1.08403 -0.47909,-1.15679 -0.0177,-0.0728 -0.21742,-0.54901 -0.44386,-1.05834 -0.22644,-0.50932 -0.91256,-2.11666 -1.52471,-3.57187 -1.53921,-3.65899 -1.92636,-4.36563 -2.39183,-4.36563 -0.22198,0 -0.84197,0.68461 -1.37775,1.52136 -1.27268,1.98759 -4.68049,6.93868 -5.44203,7.90655 -0.6683,0.84936 -1.64499,2.25489 -5.30739,7.63772 -1.38615,2.03729 -2.61905,3.74385 -2.73979,3.79236 -0.12073,0.0485 -0.21952,0.20584 -0.21952,0.34963 0,0.14379 -0.14883,0.42739 -0.33073,0.63023 -0.60393,0.67343 -0.85607,1.02663 -2.92071,4.09132 -1.12741,1.67349 -2.46279,3.63802 -2.96751,4.36562 -0.50472,0.72761 -1.0681,1.54587 -1.25196,1.81836 -0.18386,0.27249 -0.48312,0.65094 -0.66503,0.841 -0.1819,0.19005 -0.33072,0.4632 -0.33072,0.60699 0,0.14379 -0.10623,0.30112 -0.23607,0.34963 -0.12983,0.0485 -0.96066,1.15975 -1.84627,2.46944 -0.88561,1.30969 -2.56532,3.79092 -3.73269,5.51385 -1.16736,1.72293 -2.12247,3.24471 -2.12247,3.38174 0,0.34584 -0.9324,0.13831 10.05416,2.23787 0.94589,0.18077 4.22011,0.82344 7.27604,1.42817 3.05594,0.60473 10.61641,2.09979 16.80105,3.32236 12.06025,2.38405 13.23053,2.61852 15.875,3.18059 5.10397,1.08481 5.55625,1.1205 5.55625,0.43846 z m 7.02996,-2.83429 c 0.27429,-0.50932 0.59069,-0.92604 0.70312,-0.92604 0.11243,0 0.20442,-0.17859 0.20442,-0.39688 0,-0.21828 0.0934,-0.39687 0.20753,-0.39687 0.11415,0 0.43355,-0.38695 0.70979,-0.8599 0.54084,-0.92596 4.70248,-7.00187 5.15723,-7.52945 0.1515,-0.17576 0.27545,-0.44365 0.27545,-0.59532 0,-0.15166 0.11906,-0.27575 0.26458,-0.27575 0.14552,0 0.26458,-0.16585 0.26458,-0.36856 0,-0.20272 0.1786,-0.4371 0.39688,-0.52087 0.21828,-0.0838 0.39687,-0.3247 0.39687,-0.53542 0,-0.21072 0.0931,-0.42282 0.20687,-0.47133 0.11378,-0.0485 0.68396,-0.80257 1.26708,-1.67569 3.95594,-5.92338 7.88877,-11.61796 8.31413,-12.03854 0.0736,-0.0728 1.66854,-2.41972 3.54433,-5.21545 1.8758,-2.79574 3.6174,-5.3052 3.87024,-5.57659 0.25284,-0.27139 0.53308,-0.72241 0.62277,-1.00226 0.0897,-0.27986 0.47292,-0.86602 0.85163,-1.30258 0.37871,-0.43656 1.73526,-2.35389 3.01456,-4.26072 1.27931,-1.90683 2.69907,-3.98198 3.15505,-4.61143 0.48606,-0.67099 0.73135,-1.24213 0.59291,-1.38057 -0.23102,-0.23102 -5.44749,-0.78417 -40.38852,-4.28275 -9.45886,-0.9471 -17.58488,-1.77729 -18.05782,-1.84486 -1.11306,-0.15903 -1.13241,0.33474 -0.10059,2.56689 0.41761,0.90343 0.90972,2.10916 1.09357,2.6794 0.18385,0.57023 0.54431,1.40367 0.80103,1.85208 0.25672,0.44841 0.55157,1.11295 0.65523,1.47675 0.10365,0.36381 0.52189,1.37584 0.92942,2.24896 0.40753,0.87313 1.23397,2.77813 1.83653,4.23334 1.07189,2.58865 1.38611,3.32165 3.30348,7.70621 0.5171,1.18248 0.94019,2.21597 0.94019,2.29665 0,0.0807 0.35718,0.91838 0.79375,1.86157 0.43656,0.9432 0.79375,1.79045 0.79375,1.88278 0,0.0923 0.39952,1.02558 0.88782,2.07387 0.4883,1.0483 1.03994,2.37255 1.22586,2.94279 0.18592,0.57023 0.54724,1.40367 0.80292,1.85208 0.25568,0.44841 0.61206,1.29154 0.79196,1.87363 0.1799,0.58208 0.52039,1.27919 0.75666,1.54913 0.23626,0.26994 0.39143,0.50806 0.34482,0.52917 -0.0466,0.0211 0.0427,0.37354 0.19844,0.78319 0.15575,0.40966 0.28318,0.81451 0.28318,0.89967 0,0.0852 0.29017,0.76202 0.64482,1.50413 0.35465,0.74211 0.95754,2.1232 1.33976,3.06908 0.38222,0.94589 0.92549,2.22451 1.20727,2.84139 0.28177,0.61688 0.51232,1.21314 0.51232,1.32502 0,0.11189 0.28228,0.73826 0.62728,1.39195 0.34501,0.65368 0.71638,1.48617 0.82528,1.84998 0.10889,0.3638 0.4457,1.19724 0.74846,1.85208 0.30276,0.65484 0.57134,1.27992 0.59686,1.38906 0.0255,0.10914 0.0613,0.25797 0.0795,0.33073 0.0182,0.0728 0.25245,0.13229 0.52058,0.13229 0.28576,0 0.69388,-0.38321 0.98621,-0.92604 z m 64.15139,-5.09323 c 0.005,-0.10914 0.16985,-1.79168 0.36713,-3.73897 l 0.3587,-3.54054 -1.77661,-1.75113 c -2.24105,-2.20891 -3.06164,-3.45823 -3.57624,-5.44474 -0.45576,-1.75937 -0.55191,-6.34577 -0.15493,-7.38993 0.5356,-1.40873 4.68742,-5.10516 6.58846,-5.8658 1.08208,-0.43297 1.09564,-0.45495 1.10906,-1.79866 0.007,-0.74818 0.12135,-2.19377 0.25307,-3.21241 0.25058,-1.93789 2.11459,-19.39243 2.11459,-19.80096 0,-0.37396 -1.96993,0.0242 -5.82083,1.17659 -1.96453,0.58787 -3.75047,1.1027 -3.96875,1.14408 -0.21828,0.0414 -0.73205,0.21113 -1.14171,0.37723 -0.40965,0.16611 -0.86541,0.30201 -1.01279,0.30201 -0.34078,0 -7.50356,2.01224 -8.56113,2.40508 -0.43656,0.16216 -0.97234,0.32536 -1.19062,0.36266 -0.21828,0.0373 -0.71159,0.19595 -1.09623,0.35255 -0.38465,0.1566 -1.12879,0.36528 -1.65365,0.46375 -0.68797,0.12906 -0.95429,0.31575 -0.95429,0.66895 0,0.54737 0.74816,2.57139 1.73139,4.68393 0.35742,0.76797 0.64986,1.48329 0.64986,1.58961 0,0.10632 0.28122,0.72814 0.62494,1.38183 0.34372,0.65368 0.83526,1.84336 1.09233,2.64373 0.25706,0.80036 0.61894,1.6338 0.80417,1.85208 0.18523,0.21828 0.48686,0.9043 0.67028,1.5245 0.18343,0.62019 0.49283,1.25984 0.68756,1.42146 0.19473,0.16161 0.35405,0.40974 0.35405,0.55141 0,0.3346 2.59929,6.52747 3.02967,7.21825 0.18133,0.29105 0.48517,1.00542 0.67521,1.5875 0.19004,0.58209 0.68434,1.79197 1.09845,2.68863 0.41411,0.89667 0.75292,1.6852 0.75292,1.75231 0,0.0671 0.26287,0.70269 0.58416,1.41241 0.32128,0.70972 0.59915,1.34994 0.61748,1.4227 0.0438,0.17392 0.31257,0.79655 2.11274,4.89479 0.83097,1.89177 1.74558,4.03489 2.03246,4.7625 1.01279,2.56866 1.83969,4.10104 2.213,4.10104 0.20772,0 0.38146,-0.0893 0.3861,-0.19844 z m 22.33282,-10.92716 c 3.63885,-0.57101 4.08767,-0.69647 6.63062,-1.85342 0.87313,-0.39724 2.36141,-1.04637 3.30729,-1.44251 0.94589,-0.39614 2.01745,-0.92914 2.38125,-1.18444 0.3638,-0.25531 0.92101,-0.54472 1.23823,-0.64314 0.31722,-0.0984 1.44832,-0.75235 2.51354,-1.45319 1.06523,-0.70083 2.47256,-1.54573 3.1274,-1.87756 1.32364,-0.67073 5.13572,-4.23437 5.71054,-5.33837 0.20299,-0.38987 0.61838,-0.78798 0.92308,-0.88469 0.62441,-0.19818 3.06341,-3.84096 4.32725,-6.46299 0.45943,-0.95318 1.0329,-2.03073 1.27437,-2.39457 0.24146,-0.36384 0.6347,-1.614 0.87387,-2.77813 0.23916,-1.16413 0.91166,-3.64642 1.49445,-5.5162 1.22625,-3.93427 1.42815,-5.17397 1.50472,-9.23902 0.0555,-2.94759 -0.48167,-7.88738 -1.00837,-9.27272 -0.31417,-0.82632 -0.88265,-3.19496 -1.61923,-6.74667 -0.34719,-1.67414 -1.01121,-3.5405 -2.07094,-5.82084 -0.85794,-1.84611 -1.64572,-3.65422 -1.75064,-4.01802 -0.10491,-0.3638 -0.53519,-1.20767 -0.95618,-1.87525 -0.42098,-0.66758 -0.76542,-1.3576 -0.76542,-1.53338 0,-0.17578 -0.3211,-0.6407 -0.71356,-1.03316 -0.39246,-0.39245 -1.25567,-1.56879 -1.91823,-2.61407 -0.66257,-1.04528 -2.16535,-3.07025 -3.33952,-4.49993 -1.17417,-1.42968 -2.44071,-3.05384 -2.81452,-3.60924 -1.66654,-2.47609 -3.37556,-4.10781 -4.91671,-4.69432 -1.6457,-0.62631 -7.85677,-2.27392 -9.97767,-2.64679 -1.42339,-0.25024 -2.74232,-0.73211 -4.63021,-1.69166 -0.65484,-0.33283 -1.33923,-0.55104 -1.52086,-0.48492 -0.18163,0.0661 -0.74313,-0.13495 -1.24779,-0.44684 -0.6525,-0.40327 -0.96562,-0.82331 -1.08395,-1.45409 -0.21275,-1.13404 0.06,-1.99363 0.62929,-1.98318 1.53298,0.0281 4.66871,0.62121 6.87354,1.30003 1.41211,0.43476 3.56225,1.09419 4.77809,1.4654 1.21583,0.3712 2.46272,0.8515 2.77085,1.06732 0.30813,0.21583 0.82282,0.39241 1.14374,0.39241 0.58351,0 0.58351,0 -0.055,-2.3151 -0.35118,-1.27331 -0.85884,-2.96399 -1.12814,-3.75707 -0.5605,-1.65065 0.0357,-1.55812 -6.82219,-1.05875 -3.60283,0.26235 -6.09669,0.0279 -6.50264,-0.61124 -0.11445,-0.1802 -0.20991,-0.89091 -0.21214,-1.57936 -0.004,-1.08709 0.0743,-1.2678 0.59126,-1.37391 0.32743,-0.0672 1.19063,-0.24944 1.91823,-0.40499 0.72761,-0.15554 2.15636,-0.26086 3.175,-0.23403 1.01865,0.0268 3.01295,-0.0488 4.43178,-0.16809 l 2.57968,-0.21687 v -1.03686 c 0,-0.57027 -0.12008,-1.26122 -0.26684,-1.53545 -0.14677,-0.27424 -0.33599,-1.42727 -0.4205,-2.5623 -0.0845,-1.13503 -0.31009,-2.59947 -0.50127,-3.25431 -0.19119,-0.65485 -0.48669,-2.14313 -0.65666,-3.30729 -0.52009,-3.56222 -0.4111,-3.32903 -1.33948,-2.8659 -0.60401,0.30132 -0.89285,0.32681 -1.16299,0.10261 -0.58684,-0.48703 -0.73356,-1.98107 -0.30441,-3.09965 0.64984,-1.69381 1.67414,-6.40605 2.03253,-9.35061 0.46356,-3.80854 0.48011,-13.58184 0.0252,-14.86535 -0.19002,-0.53611 -0.82033,-1.40372 -1.40069,-1.92804 -0.87071,-0.78664 -1.2035,-0.9305 -1.90347,-0.82284 -0.46655,0.0718 -1.44359,0.19966 -2.17119,0.28423 -1.61334,0.18753 -4.82404,0.83255 -6.61458,1.32884 -4.47499,1.24035 -5.42299,1.53021 -6.61459,2.02246 -2.60371,1.0756 -4.23676,1.90228 -4.44491,2.25009 -0.11638,0.19444 -0.48057,0.35353 -0.80933,0.35353 -0.32876,0 -0.82778,0.16821 -1.10893,0.37379 -0.6176,0.4516 -1.52775,0.13878 -3.45587,-1.18781 -1.93051,-1.32822 -9.12076,-4.02721 -15.18408,-5.69962 -0.80037,-0.22076 -2.70537,-0.57291 -4.23334,-0.78257 -1.52796,-0.20965 -3.67109,-0.50569 -4.7625,-0.65787 -2.04235,-0.28477 -14.03596,-0.38106 -15.12974,-0.12146 -0.6829,0.16208 -2.15695,-1.03676 -3.53013,-2.87103 -0.42191,-0.56358 -1.9498,-1.99233 -3.39531,-3.175 -1.44551,-1.18267 -3.47404,-2.8429 -4.50786,-3.68941 -2.09064,-1.71186 -3.71089,-2.54808 -6.18923,-3.19429 -1.79125,-0.46706 -2.17022,-0.38548 -3.13191,0.67421 -0.93615,1.03154 -3.68574,5.80789 -4.30861,7.48455 -0.32146,0.8653 -0.73868,1.87733 -0.92716,2.24896 -0.18847,0.37162 -0.5467,1.30981 -0.79606,2.08485 -0.24935,0.77505 -0.70453,1.96568 -1.01152,2.64584 -0.67187,1.48863 -1.24704,3.67182 -1.44004,5.46605 -0.16363,1.52109 -0.56191,2.10791 -2.35774,3.47388 -2.41761,1.83892 -4.64885,3.93345 -5.6047,5.26131 -0.52376,0.7276 -1.74494,2.27541 -2.71374,3.43958 -0.9688,1.16417 -2.06628,2.65245 -2.43883,3.30729 -1.3716,2.41088 -2.57774,4.88505 -2.57457,5.28123 0.002,0.255 0.69133,0.68583 1.84332,1.15215 1.69765,0.68718 1.85361,0.81702 2.01503,1.67742 0.13303,0.70913 0.0496,1.10124 -0.34814,1.63642 -0.77487,1.04259 -1.61234,1.01749 -3.06521,-0.0919 -1.10755,-0.84568 -1.26511,-0.89906 -1.403,-0.47536 -0.0854,0.26251 -0.31517,0.90839 -0.51052,1.43528 -0.53725,1.44908 -0.27724,2.00139 1.0348,2.19815 1.67449,0.2511 2.81171,1.0411 2.81171,1.95323 0,1.27661 -0.91333,1.86284 -3.04536,1.9547 l -1.84944,0.0797 -0.0794,1.52287 c -0.0758,1.4546 -0.0462,1.53553 0.66146,1.80545 0.40747,0.15542 1.09804,0.20233 1.5346,0.10425 1.34278,-0.30166 2.70493,-0.25082 3.14877,0.11753 0.83428,0.6924 0.28881,3.3746 -0.72781,3.57883 -0.31288,0.0628 -1.09127,0.17207 -1.72976,0.24269 -1.9608,0.21691 -2.08888,0.53672 -1.36336,3.40452 0.34133,1.34917 0.72231,2.6551 0.84664,2.90207 0.36526,0.72557 2.19552,2.78923 5.20991,5.87428 1.54973,1.58606 3.1214,3.33804 3.49259,3.8933 l 0.67489,1.00957 1.17719,-0.58891 c 2.13925,-1.07019 4.7697,-2.14781 5.0798,-2.08105 0.10914,0.0235 0.19843,-0.0671 0.19843,-0.20134 0,-0.13423 0.44649,-0.38687 0.99219,-0.5614 0.5457,-0.17454 1.40891,-0.53314 1.91823,-0.79689 1.01583,-0.52603 6.71141,-3.05752 7.40833,-3.29274 0.0728,-0.0246 0.66808,-0.29981 1.32292,-0.61168 0.65484,-0.31186 1.33945,-0.56963 1.52135,-0.57283 0.18191,-0.003 0.33073,-0.12487 0.33073,-0.27039 0,-0.417 1.32273,-0.30835 1.48796,0.12222 0.0816,0.21274 0.35457,0.45223 0.60651,0.53219 0.25195,0.08 0.68743,0.35239 0.96775,0.60538 0.28031,0.253 0.98591,0.78128 1.56799,1.17396 3.10286,2.09322 6.06683,4.18426 6.65104,4.69223 0.3636,0.31615 2.17102,1.5969 4.01648,2.84613 1.84547,1.24923 3.83165,2.65189 4.41373,3.11702 1.99999,1.59818 14.28772,10.27462 14.71024,10.387 0.2325,0.0618 1.43613,-0.54813 2.67471,-1.35548 1.23859,-0.80735 2.53664,-1.57844 2.88456,-1.71352 0.34792,-0.13508 1.31719,-0.66059 2.15394,-1.16779 1.83873,-1.11456 3.65925,-1.73618 5.86099,-2.00124 1.51615,-0.18253 1.68209,-0.15133 2.09311,0.39357 0.24553,0.32551 0.44265,1.04568 0.43805,1.60039 -0.0109,1.31253 -0.93831,2.37585 -2.47583,2.83857 -0.64138,0.19303 -1.56521,0.6506 -2.05296,1.01682 -0.48774,0.36622 -1.48212,0.9639 -2.20972,1.32818 -2.02102,1.01183 -3.78403,2.27222 -5.82084,4.16135 -2.90843,2.69758 -3.44306,3.29887 -4.32921,4.86903 -1.29249,2.29018 -1.07368,4.87721 0.49068,5.8013 0.42711,0.2523 0.92973,0.6114 1.11693,0.798 0.45168,0.45024 1.96632,0.9651 2.83918,0.9651 0.79211,0 5.35586,-1.13166 7.15846,-1.77507 0.65485,-0.23373 2.82704,-1.18012 4.8271,-2.10307 2.00006,-0.92296 3.73723,-1.67811 3.86037,-1.67811 0.12314,0 1.54255,-0.71437 3.15424,-1.5875 1.6117,-0.87312 3.20828,-1.58371 3.54797,-1.57908 1.79524,0.0245 3.08051,3.05964 1.87439,4.42639 -0.25466,0.28858 -1.47505,0.97856 -2.71198,1.5333 -2.25711,1.01226 -3.35047,1.70481 -2.69147,1.70481 0.18279,0 0.5792,0.22998 0.8809,0.51106 0.46522,0.43341 4.33878,3.15646 6.44674,4.53195 1.21405,0.79219 1.71383,1.7028 1.71383,3.12266 0,0.73444 -0.59881,7.25068 -1.33068,14.48054 -0.73187,7.22987 -1.29742,13.17362 -1.25677,13.20834 0.20648,0.17638 3.15586,0.27934 3.25821,0.11374 0.0655,-0.10601 -0.11814,-0.9354 -0.40812,-1.84311 -0.41851,-1.31007 -0.52722,-2.38325 -0.52722,-5.20473 0,-3.2293 0.0605,-3.68661 0.66145,-5.00045 0.36381,-0.79536 0.66146,-1.59771 0.66146,-1.783 0,-0.40642 2.66024,-4.68595 3.65574,-5.88098 0.94784,-1.13783 4.63254,-4.24301 5.6879,-4.79333 1.49764,-0.78094 4.88674,-1.34845 6.15373,-1.03046 0.82147,0.20617 1.22238,1.19421 1.01381,2.49853 -0.15567,0.97352 -0.3107,1.12909 -1.84729,1.85366 -3.91783,1.84745 -4.58564,2.27688 -6.52795,4.19777 -1.12779,1.11535 -2.05165,2.15243 -2.05303,2.30463 -0.001,0.1522 -0.48234,1.03308 -1.06879,1.95753 -0.85212,1.34324 -1.19701,2.28553 -1.71727,4.69186 -0.35806,1.65608 -0.64863,3.40003 -0.64571,3.87544 0.008,1.2813 1.12113,5.38771 1.9786,7.29829 0.90249,2.01089 1.01225,3.90037 0.25858,4.45147 -1.14519,0.83738 -3.3471,0.12306 -4.17607,-1.35477 -0.86632,-1.54443 -1.9337,-1.69968 -6.79766,-0.9887 -1.76499,0.258 -4.43753,1.97611 -5.27087,3.38852 -2.34422,3.97315 -0.50655,7.1708 5.16858,8.99362 3.03824,0.97587 11.0348,1.15565 16.09354,0.36182 z m 7.82125,-74.77993 c -0.65485,-0.36026 -1.42875,-0.86979 -1.7198,-1.1323 -0.29104,-0.26251 -2.25557,-1.6416 -4.36562,-3.06464 -4.50846,-3.04056 -4.79059,-3.24712 -6.35,-4.64917 -0.65484,-0.58877 -1.72641,-1.45284 -2.38125,-1.92015 -1.42154,-1.01446 -1.68492,-1.99523 -0.79127,-2.94647 0.31466,-0.33494 0.78882,-0.66566 1.0537,-0.73492 0.69879,-0.18274 2.3026,0.61759 3.9709,1.98154 0.80037,0.65436 2.64584,1.97693 4.10104,2.93905 1.45521,0.96213 3.00303,2.03269 3.43959,2.37904 0.43656,0.34634 1.46742,1.05692 2.2908,1.57905 0.82339,0.52214 2.04378,1.47319 2.71198,2.11344 1.01912,0.97649 1.21493,1.32346 1.21493,2.15289 0,2.11239 -0.97556,2.51264 -3.175,1.30264 z m -63.46965,-19.81664 c -1.55765,-0.41893 -3.62345,-1.79683 -4.63862,-3.09399 l -0.64676,-0.8264 -1.53968,0.78013 c -1.36812,0.69322 -1.80499,0.77975 -3.92092,0.77666 -2.14784,-0.003 -2.5065,-0.0781 -3.65907,-0.76508 -1.79947,-1.07251 -2.64331,-2.44936 -2.77574,-4.529 -0.0933,-1.46561 -0.0414,-1.69851 0.43513,-1.95357 0.59521,-0.31854 1.59224,-0.058 2.0774,0.54284 0.15911,0.19706 0.37133,0.74202 0.4716,1.21103 0.3684,1.72331 2.68433,2.753 4.97801,2.21329 1.40549,-0.33072 2.15884,-0.89201 2.68475,-2.00028 0.58968,-1.24265 0.37176,-2.2097 -0.81915,-3.63513 -0.78816,-0.94337 -0.90776,-1.25432 -0.78156,-2.03202 0.23959,-1.47641 0.71062,-1.75305 2.92337,-1.71694 2.91844,0.0476 6.24668,1.71501 6.23445,3.12331 -0.006,0.71935 -1.88185,2.26899 -2.74625,2.26899 -0.39157,0 -0.78376,0.21265 -0.94384,0.51177 -0.38925,0.72732 -0.33892,2.30079 0.10041,3.13939 0.42947,0.81977 1.86775,2.23155 2.71716,2.66709 1.52531,0.78212 4.24788,-0.0601 5.49972,-1.70136 0.75319,-0.98749 1.07378,-1.07872 2.11834,-0.60278 2.58059,1.17579 -1.04066,5.39761 -5.02098,5.85368 -0.80221,0.0919 -1.88374,7.5e-4 -2.74777,-0.23163 z m 25.30177,-6.97939 c -2.33568,-0.45304 -4.65373,-1.6492 -6.16932,-3.18348 -1.85638,-1.87928 -2.43979,-2.7936 -2.91029,-4.56101 -0.9313,-3.49848 -0.0425,-4.7873 2.46674,-3.57675 0.39694,0.19151 0.82833,0.91145 1.29469,2.16073 0.58246,1.56029 0.92747,2.05925 2.06358,2.98437 2.30069,1.87341 4.44378,2.40205 7.66432,1.89057 2.08258,-0.33075 2.10183,-0.34121 3.91028,-2.12472 1.9362,-1.9095 2.53635,-2.3319 3.31318,-2.3319 0.5079,0 2.19303,1.38017 2.19303,1.79615 0,0.67633 -2.24187,3.5715 -3.48364,4.49882 -2.14888,1.6047 -3.38338,2.1205 -5.80057,2.42359 -2.43704,0.30558 -3.0714,0.30888 -4.542,0.0236 z m -55.24248,-9.80938 c -1.58054,-0.61937 -2.34445,-1.12586 -3.66441,-2.42955 -2.16816,-2.14145 -3.73149,-5.12345 -3.73149,-7.1177 0,-1.55769 0.4237,-2.06353 1.73982,-2.07714 1.09601,-0.0113 1.87505,0.87207 2.23045,2.52925 0.20819,0.97074 0.62168,1.71782 1.51764,2.74204 1.66014,1.89779 3.31023,2.65552 5.75689,2.64359 2.73373,-0.0133 3.43645,-0.34559 7.3282,-3.46499 0.66779,-0.53526 0.77826,-0.54751 1.7198,-0.19071 0.85446,0.32381 1.01907,0.51506 1.0918,1.26846 0.16378,1.69663 -0.42278,2.66318 -2.59918,4.28298 -3.53703,2.63247 -7.63502,3.28507 -11.38952,1.81377 z m -62.1859,107.30761 c 1.03034,-1.37682 1.87334,-2.61706 1.87334,-2.75607 0,-0.13901 0.10126,-0.29244 0.22503,-0.34095 0.12378,-0.0485 0.54197,-0.56444 0.92933,-1.14653 0.38736,-0.58208 1.08977,-1.60967 1.5609,-2.28354 0.47114,-0.67386 1.53271,-2.22168 2.35906,-3.43958 2.26112,-3.33253 3.13275,-4.56482 3.3385,-4.71991 0.10237,-0.0772 0.3052,-0.34406 0.45072,-0.5931 0.65225,-1.11623 6.05395,-8.94835 6.50678,-9.4344 0.27757,-0.29794 0.50468,-0.65583 0.50468,-0.79531 0,-0.13948 0.0893,-0.29329 0.19843,-0.34179 0.10914,-0.0485 0.51725,-0.56445 0.9069,-1.14653 0.38966,-0.58208 1.61269,-2.36802 2.71784,-3.96875 3.42147,-4.95573 4.90808,-7.21594 4.90808,-7.4622 0,-0.13017 -0.98227,-0.75043 -2.18282,-1.37837 -1.20054,-0.62794 -3.37343,-1.76148 -4.82864,-2.51898 -1.45521,-0.7575 -3.22912,-1.6964 -3.94201,-2.08646 -0.7129,-0.39006 -1.44712,-0.7092 -1.6316,-0.7092 -0.18448,0 -0.37511,-0.0893 -0.42361,-0.19844 -0.10237,-0.23033 -1.03835,-0.73619 -6.37886,-3.44757 -2.15018,-1.09165 -3.97743,-1.9168 -4.06057,-1.83367 -0.22984,0.22984 -5.45047,52.30473 -5.28651,52.73201 0.0786,0.20497 0.19671,0.37267 0.26235,0.37267 0.0656,0 0.96235,-1.1265 1.99268,-2.50333 z m 199.25251,-7.73219 c 1.0914,-0.2077 2.52015,-0.4709 3.175,-0.58489 2.43139,-0.42325 7.91865,-2.52985 8.33204,-3.19873 0.0912,-0.1476 0.36719,-0.27275 0.61326,-0.27811 1.23965,-0.027 7.9947,-5.85051 9.80973,-8.45692 1.18779,-1.70567 2.31033,-4.9691 2.55483,-7.42734 0.14643,-1.47223 0.0879,-1.89754 -0.382,-2.77421 -0.30522,-0.56947 -0.55495,-1.22933 -0.55495,-1.46636 0,-0.45927 -1.51827,-1.62156 -2.69378,-2.06217 -0.79467,-0.29786 -5.39786,0.44454 -5.72336,0.92306 -0.1,0.14701 -0.65806,0.61337 -1.24015,1.03635 -1.60815,1.1686 -2.45097,1.99644 -3.36378,3.30401 -0.45715,0.65484 -1.0651,1.36922 -1.351,1.5875 -0.2859,0.21828 -0.88985,0.76672 -1.3421,1.21875 -0.45226,0.45203 -1.29853,1.1637 -1.88062,1.58148 -0.58208,0.41778 -1.59411,1.22075 -2.24896,1.78439 -1.36739,1.17695 -2.09548,1.58694 -3.88202,2.186 -0.70254,0.23557 -1.45732,0.58724 -1.67727,0.7815 -0.21996,0.19425 -1.48768,0.71761 -2.81716,1.16303 -2.87304,0.96256 -5.11208,1.04872 -7.84685,0.30198 -1.80351,-0.49246 -1.80351,-0.49246 -2.02956,0.10209 -0.12433,0.32701 -0.6522,1.26074 -1.17305,2.07496 -0.52085,0.81422 -0.947,1.59222 -0.947,1.72888 0,0.13667 -0.46196,0.80751 -1.02656,1.49077 -0.69427,0.84015 -1.07417,1.59723 -1.17364,2.33884 -0.0809,0.60312 -0.11385,1.12981 -0.0732,1.17043 0.22341,0.22341 8.28311,1.75721 10.07864,1.91801 2.62513,0.2351 6.25176,0.0537 8.86354,-0.4433 z m -103.98126,-28.94811 c 0,-0.30496 -0.24131,-0.89337 -0.53625,-1.30757 -0.29494,-0.41421 -0.72203,-1.14696 -0.94908,-1.62835 -0.22706,-0.48138 -0.75162,-1.47055 -1.16571,-2.19816 -0.41408,-0.7276 -1.06518,-1.91823 -1.44688,-2.64583 -0.3817,-0.72761 -1.03806,-1.91823 -1.45858,-2.64583 -0.42051,-0.72761 -1.01224,-1.79917 -1.31496,-2.38125 -0.30272,-0.58209 -0.95617,-1.77271 -1.45212,-2.64584 -1.04533,-1.84032 -1.23579,-2.18516 -2.7765,-5.02708 -0.63113,-1.16417 -1.44609,-2.65245 -1.81101,-3.30729 -0.36493,-0.65485 -0.98415,-1.78594 -1.37606,-2.51354 -0.3919,-0.72761 -2.04059,-3.72656 -3.66374,-6.66434 -1.62315,-2.93778 -2.95119,-5.42872 -2.95119,-5.53542 0,-0.1067 -0.16453,-0.38196 -0.36563,-0.6117 -0.2011,-0.22974 -0.94522,-1.53419 -1.6536,-2.89878 -0.70839,-1.36458 -1.44831,-2.54259 -1.64427,-2.61779 -0.19644,-0.0754 -0.73067,0.2876 -1.19067,0.809 -1.47454,1.67133 -3.04595,3.48026 -3.53424,4.06842 -0.26132,0.31477 -1.18951,1.43866 -2.06263,2.49752 -0.87313,1.05886 -2.12996,2.52773 -2.79296,3.26415 -0.663,0.73641 -1.61366,1.87472 -2.11257,2.52956 -0.49892,0.65484 -1.04626,1.30969 -1.21631,1.45521 -0.17005,0.14552 -0.94344,1.03849 -1.71864,1.98437 -1.51807,1.85232 -2.38173,2.86335 -3.36945,3.94441 -0.34463,0.37719 -1.05541,1.22158 -1.57952,1.87643 -0.91762,1.14652 -1.37348,1.6874 -4.04183,4.7956 -0.67147,0.78216 -1.91935,2.25554 -2.77306,3.27419 -2.42758,2.89657 -2.59489,3.09199 -3.03398,3.54362 -0.22732,0.23382 -0.88018,1.02044 -1.4508,1.74805 -0.57062,0.7276 -1.37056,1.67668 -1.77763,2.10906 -1.49815,1.59128 -2.68528,1.38388 22.29846,3.89579 12.58558,1.26537 25.026,2.53016 27.64537,2.81064 6.672,0.71442 7.27604,0.71631 7.27604,0.0228 z m 10.74623,-0.23493 c 1.5839,-0.43417 4.72529,-1.32352 6.98086,-1.97633 2.25557,-0.65281 4.51776,-1.30553 5.02708,-1.45048 0.50932,-0.14495 2.29526,-0.68328 3.96875,-1.19628 1.67349,-0.513 3.42966,-1.00822 3.90261,-1.10048 1.00849,-0.19676 1.14379,-0.84641 0.29831,-1.43227 -0.30888,-0.21403 -0.71709,-0.53797 -0.90715,-0.71987 -0.19005,-0.1819 -0.4632,-0.33073 -0.60699,-0.33073 -0.14379,0 -0.30112,-0.0893 -0.34963,-0.19844 -0.15939,-0.35863 -2.02954,-1.65368 -2.38564,-1.65201 -0.19161,8.9e-4 -0.67493,0.17197 -1.07404,0.38017 -0.39912,0.2082 -1.47068,0.6167 -2.38125,0.90778 -0.91058,0.29108 -2.4295,0.77972 -3.37539,1.08587 -0.94588,0.30615 -2.46393,0.62851 -3.37343,0.71635 -0.90951,0.0879 -1.65365,0.26156 -1.65365,0.38604 0,0.34869 -1.8017,0.26157 -3.66254,-0.17711 -2.04192,-0.48137 -5.01546,-2.16928 -5.91011,-3.35485 -0.36188,-0.47956 -1.11166,-1.68793 -1.66618,-2.68528 -1.00821,-1.81335 -1.00821,-1.81335 -0.84231,-4.33895 0.18007,-2.74125 0.62993,-4.00527 2.20171,-6.18627 0.48598,-0.67434 0.8836,-1.3436 0.8836,-1.48725 0,-0.14364 -0.41591,-0.54441 -0.92424,-0.89059 -0.50832,-0.34618 -0.92504,-0.71871 -0.92604,-0.82786 -9.9e-4,-0.10914 -0.12589,-0.19843 -0.27756,-0.19843 -0.25475,0 -0.52848,-0.18685 -1.39296,-0.95083 -0.18009,-0.15916 -0.80104,-0.60712 -1.37988,-0.99548 -0.57885,-0.38836 -1.60367,-1.09158 -2.27739,-1.56271 -0.67372,-0.47113 -2.01317,-1.38788 -2.97656,-2.0372 -0.96339,-0.64933 -1.75162,-1.27441 -1.75162,-1.38906 0,-0.11466 -0.12404,-0.20847 -0.27565,-0.20847 -0.1516,0 -0.5225,-0.22998 -0.8242,-0.51106 -0.51351,-0.4784 -5.03625,-3.64553 -6.43895,-4.50898 -0.3483,-0.2144 -0.72541,-0.2977 -0.83802,-0.18509 -0.20878,0.20878 1.56179,3.85169 3.49432,7.1895 0.58977,1.01865 1.28196,2.2688 1.53819,2.77813 0.25622,0.50932 0.81586,1.55112 1.24363,2.3151 0.42777,0.76399 1.12775,2.01414 1.55552,2.77813 0.42777,0.76398 0.98913,1.80578 1.24745,2.3151 0.25833,0.50932 0.87708,1.64042 1.37499,2.51354 0.49792,0.87313 1.3238,2.36141 1.83531,3.30729 0.5115,0.94589 1.74542,3.18786 2.74204,4.98217 0.99662,1.79431 1.81203,3.31472 1.81203,3.3787 0,0.064 0.27972,0.56043 0.62159,1.10325 0.34187,0.54281 1.15478,1.99896 1.80646,3.23588 1.79647,3.40981 2.16466,3.96526 2.62964,3.96708 0.2351,9.2e-4 1.72339,-0.35356 3.30729,-0.78772 z m -74.22772,-7.97745 c 0.98858,-1.22687 2.34493,-2.7742 3.48722,-3.97822 0.40018,-0.42181 0.72761,-0.83881 0.72761,-0.92666 0,-0.0879 0.44648,-0.6593 0.99218,-1.26989 0.54571,-0.6106 1.28985,-1.46589 1.65365,-1.90066 1.13839,-1.36045 3.56201,-4.18593 3.70936,-4.32439 0.0774,-0.0728 0.55134,-0.66808 1.05314,-1.32292 0.5018,-0.65484 0.98775,-1.25016 1.07988,-1.32292 0.0921,-0.0728 0.80656,-0.90619 1.58763,-1.85208 0.78107,-0.94588 1.73366,-2.07698 2.11687,-2.51354 2.57695,-2.93575 3.46448,-3.97306 4.87291,-5.6953 0.87313,-1.06766 2.06957,-2.48517 2.65876,-3.15003 1.92584,-2.17316 3.82353,-4.5574 3.82353,-4.80385 0,-0.38472 -1.49133,-0.27924 -1.83054,0.12947 -0.1693,0.204 -0.5959,0.44322 -0.94798,0.53158 -0.35208,0.0884 -1.66393,0.63583 -2.91522,1.21659 -1.2513,0.58075 -2.3438,1.05591 -2.4278,1.05591 -0.084,0 -1.13658,0.49915 -2.33908,1.10921 -2.18636,1.10921 -2.18636,1.10921 -2.90509,3.24115 -1.0113,2.99978 -2.38727,5.54794 -3.42199,6.33716 -0.48549,0.3703 -2.1622,1.27225 -3.72603,2.00434 -2.83625,1.32775 -2.85009,1.33106 -5.56429,1.33106 -2.51634,0 -2.78007,-0.0497 -3.50706,-0.66146 -0.43235,-0.3638 -0.85856,-0.66146 -0.94712,-0.66146 -0.0886,0 -0.71362,-0.34394 -1.38901,-0.76431 -1.3642,-0.84911 -1.20282,-0.87162 -4.459,0.62195 -1.66694,0.76461 -4.33296,1.96679 -5.02708,2.26685 -0.29104,0.12582 -1.30307,0.57757 -2.24896,1.00388 -0.94588,0.42632 -2.01745,0.86343 -2.38125,0.97134 -0.3638,0.10792 -0.84005,0.33658 -1.05833,0.50812 -0.21828,0.17155 -1.11125,0.59477 -1.98438,0.94049 -1.76362,0.69832 -2.77812,1.2834 -2.77812,1.6022 0,0.11577 0.56555,0.49975 1.25677,0.85329 0.69122,0.35355 2.92365,1.51589 4.96094,2.583 2.03729,1.0671 3.97113,2.06841 4.29741,2.22513 0.32629,0.15671 0.59418,0.37424 0.59531,0.48338 10e-4,0.10914 0.16374,0.19843 0.36133,0.19843 0.1976,0 1.17986,0.43499 2.18282,0.96664 1.00295,0.53165 2.09051,1.0972 2.41679,1.25677 0.32629,0.15957 0.59418,0.37943 0.59532,0.48857 0.001,0.10914 0.12171,0.19844 0.26794,0.19844 0.26184,0 1.52115,0.59826 4.07709,1.9369 1.51384,0.79286 1.76948,0.71708 3.08387,-0.91416 z m 5.96294,-22.48071 c 1.36309,-0.82729 1.67891,-1.18492 2.51124,-2.84368 0.78443,-1.5633 1.02793,-2.46513 1.38296,-5.12195 0.47619,-3.56357 0.48917,-3.5841 2.55977,-4.04884 l 1.19062,-0.26724 -0.92604,-0.57704 c -0.50932,-0.31738 -1.21722,-1.05253 -1.5731,-1.63367 -0.35589,-0.58114 -0.89167,-1.12233 -1.19063,-1.20263 -1.80523,-0.4849 -5.50328,0.10727 -7.7844,1.24651 -1.45849,0.72841 -3.68579,3.25508 -4.76524,5.40574 -0.69286,1.38041 -0.82621,1.94901 -0.82621,3.52282 0,3.00078 0.94822,4.67549 3.55531,6.27929 0.34259,0.21075 1.24568,0.30804 2.42614,0.26135 1.61788,-0.064 2.09809,-0.20648 3.43958,-1.02066 z"
       id="path1" /></g></svg>
